<?xml version="1.0" encoding="UTF-8" standalone="no"?>
<!DOCTYPE svg PUBLIC "-//W3C//DTD SVG 1.1//EN" "http://www.w3.org/Graphics/SVG/1.1/DTD/svg11.dtd">
<svg width="100%" height="100%" viewBox="0 0 1080 1080" version="1.1" xmlns="http://www.w3.org/2000/svg" xmlns:xlink="http://www.w3.org/1999/xlink" xml:space="preserve" xmlns:serif="http://www.serif.com/" style="fill-rule:evenodd;clip-rule:evenodd;stroke-linejoin:round;stroke-miterlimit:2;">
    <g id="Zrkadlo" transform="matrix(1.47556,0,0,1.47556,-204.82,3.44123)">
        <g transform="matrix(1,0,0,1,9.83634,10.423)">
            <path d="M240,321L194,603L402,581L393,557L230.5,570.5L268.5,320.5L240,321Z" style="fill:rgb(63,61,86);fill-rule:nonzero;"/>
        </g>
        <g transform="matrix(1,0,0,1,9.83634,10.423)">
            <path d="M186,1L466,0L547,613L266,651L186,1Z" style="fill:rgb(63,61,86);fill-rule:nonzero;"/>
        </g>
        <g transform="matrix(1,0,0,1,9.83634,10.423)">
            <path d="M216.5,24.5L442.5,24.5L521.5,594.5L288.5,626.5L216.5,24.5Z" style="fill:white;fill-rule:nonzero;"/>
        </g>
    </g>
    <g id="Hviezdičky-v-zrkadle" serif:id="Hviezdičky v zrkadle" transform="matrix(1.47556,0,0,1.47556,-204.82,3.44123)">
        <g transform="matrix(0.678754,-0.123737,0.144666,0.793563,100.422,56.8192)">
            <path d="M459.515,87.42L447.948,87.42L447.948,75.853L446.897,75.853L446.897,87.42L435.33,87.42L435.33,88.471L446.897,88.471L446.897,100.038L447.948,100.038L447.948,88.471L459.515,88.471L459.515,87.42Z" style="fill:rgb(207,204,224);fill-rule:nonzero;"/>
        </g>
        <g transform="matrix(0.687794,-0.0543747,0.063572,0.804133,-6.05028,176.92)">
            <path d="M459.515,87.42L447.948,87.42L447.948,75.853L446.897,75.853L446.897,87.42L435.33,87.42L435.33,88.471L446.897,88.471L446.897,100.038L447.948,100.038L447.948,88.471L459.515,88.471L459.515,87.42Z" style="fill:rgb(207,204,224);fill-rule:nonzero;"/>
        </g>
        <g transform="matrix(0.687794,-0.0543747,0.063572,0.804133,-13.2564,235.673)">
            <path d="M459.515,87.42L447.948,87.42L447.948,75.853L446.897,75.853L446.897,87.42L435.33,87.42L435.33,88.471L446.897,88.471L446.897,100.038L447.948,100.038L447.948,88.471L459.515,88.471L459.515,87.42Z" style="fill:rgb(207,204,224);fill-rule:nonzero;"/>
        </g>
        <g transform="matrix(0.683266,-0.0957329,0.111926,0.798839,-44.3622,182.614)">
            <path d="M459.515,87.42L447.948,87.42L447.948,75.853L446.897,75.853L446.897,87.42L435.33,87.42L435.33,88.471L446.897,88.471L446.897,100.038L447.948,100.038L447.948,88.471L459.515,88.471L459.515,87.42Z" style="fill:rgb(207,204,224);fill-rule:nonzero;"/>
        </g>
        <g transform="matrix(0.685217,-0.0805955,0.094228,0.801119,-12.0123,69.6559)">
            <path d="M459.515,87.42L447.948,87.42L447.948,75.853L446.897,75.853L446.897,87.42L435.33,87.42L435.33,88.471L446.897,88.471L446.897,100.038L447.948,100.038L447.948,88.471L459.515,88.471L459.515,87.42Z" style="fill:rgb(207,204,224);fill-rule:nonzero;"/>
        </g>
        <g transform="matrix(0.683393,-0.0948219,0.110861,0.798987,142.358,212.896)">
            <path d="M459.515,87.42L447.948,87.42L447.948,75.853L446.897,75.853L446.897,87.42L435.33,87.42L435.33,88.471L446.897,88.471L446.897,100.038L447.948,100.038L447.948,88.471L459.515,88.471L459.515,87.42Z" style="fill:rgb(207,204,224);fill-rule:nonzero;"/>
        </g>
        <g transform="matrix(0.683393,-0.0948219,0.110861,0.798987,139.196,274.937)">
            <path d="M459.515,87.42L447.948,87.42L447.948,75.853L446.897,75.853L446.897,87.42L435.33,87.42L435.33,88.471L446.897,88.471L446.897,100.038L447.948,100.038L447.948,88.471L459.515,88.471L459.515,87.42Z" style="fill:rgb(207,204,224);fill-rule:nonzero;"/>
        </g>
        <g transform="matrix(0.681101,-0.110085,0.128705,0.796308,101.806,43.1049)">
            <path d="M349.583,63.235L338.016,63.235L338.016,51.668L336.965,51.668L336.965,63.235L325.398,63.235L325.398,64.286L336.965,64.286L336.965,75.853L338.016,75.853L338.016,64.286L349.583,64.286L349.583,63.235Z" style="fill:rgb(207,204,224);fill-rule:nonzero;"/>
        </g>
        <g transform="matrix(0.687226,-0.0611457,0.0714883,0.803468,24.5378,35.4031)">
            <path d="M349.583,63.235L338.016,63.235L338.016,51.668L336.965,51.668L336.965,63.235L325.398,63.235L325.398,64.286L336.965,64.286L336.965,75.853L338.016,75.853L338.016,64.286L349.583,64.286L349.583,63.235Z" style="fill:rgb(207,204,224);fill-rule:nonzero;"/>
        </g>
        <g transform="matrix(0.687226,-0.0611457,0.0714883,0.803468,24.5378,35.4031)">
            <path d="M349.583,63.235L338.016,63.235L338.016,51.668L336.965,51.668L336.965,63.235L325.398,63.235L325.398,64.286L336.965,64.286L336.965,75.853L338.016,75.853L338.016,64.286L349.583,64.286L349.583,63.235Z" style="fill:rgb(207,204,224);fill-rule:nonzero;"/>
        </g>
    </g>
    <g id="Teta-v-zrkadle" serif:id="Teta v zrkadle" transform="matrix(1.62436,0,0,1.47556,-264.228,3.44123)">
        <g id="Vlasy" transform="matrix(0.803657,-0.0656149,0.0721362,0.836437,-138.296,-6.30657)">
            <path d="M608.195,191.438C608.195,191.438 589.564,184.784 577.587,211.399C565.61,238.015 546.979,267.292 546.979,267.292L557.625,269.954C557.625,269.954 560.286,251.323 566.94,248.661L564.279,272.615C564.279,272.615 644.126,300.562 680.057,269.954L678.726,260.638C678.726,260.638 684.049,261.969 684.049,269.954L688.042,265.962C688.042,265.962 684.049,257.977 672.072,247.331C664.211,240.343 661.509,227.049 660.581,218.737C659.886,211.798 657.108,205.228 652.615,199.894C644.656,190.67 630.152,180.865 608.195,191.438Z" style="fill:rgb(47,46,65);fill-rule:nonzero;"/>
        </g>
        <g id="Ľavá-ruka" serif:id="Ľavá ruka" transform="matrix(0.803657,-0.0656149,0.0721362,0.836437,-138.296,-6.30657)">
            <path d="M643.864,301.921L667.52,269.394L675.378,222.222L619.9,163.125C619.9,163.125 609.032,114.265 619.887,116.677C630.741,119.089 631.96,155.889 631.96,155.889L694.515,204.8C694.515,204.8 696.211,277.691 675.708,304.224L658.493,362.123L643.864,301.921Z" style="fill:rgb(255,186,186);fill-rule:nonzero;"/>
        </g>
        <g id="Pravá-ruka" serif:id="Pravá ruka" transform="matrix(0.803657,-0.0656149,0.0721362,0.836437,-137.154,-7.36033)">
            <path d="M588.543,295.791L569.246,271.67L554.773,222.222L610.251,163.125C610.251,163.125 621.58,115.361 610.725,117.773C599.871,120.185 596.472,155.076 596.472,155.076L534.887,210.423C534.887,210.423 539.999,283.121 560.501,309.654L571.658,362.123L588.543,295.791Z" style="fill:rgb(255,186,186);fill-rule:nonzero;"/>
        </g>
        <g id="Hlava" transform="matrix(0.803657,-0.0656149,0.0721362,0.836437,47.5746,15.5804)">
            <circle cx="387.744" cy="199.931" r="31.357" style="fill:rgb(255,186,186);"/>
        </g>
        <g id="Krk" transform="matrix(0.803657,-0.0656149,0.0721362,0.836437,-138.296,-6.30657)">
            <path d="M600.603,260.815C600.603,260.815 601.809,286.142 594.573,294.585C587.336,303.027 580.1,346.445 615.076,347.651C650.051,348.857 646.433,311.469 646.433,311.469L639.197,290.966C639.197,290.966 628.342,275.288 631.96,260.815L600.603,260.815Z" style="fill:rgb(255,185,185);fill-rule:nonzero;"/>
        </g>
        <g id="Pravá-noha" serif:id="Pravá noha" transform="matrix(0.803657,-0.0656149,0.0721362,0.836437,-138.296,-6.30657)">
            <path d="M568.04,541.824L593.97,549.664C593.97,549.664 615.076,537 615.076,549.061C615.076,561.121 607.839,576.8 610.251,587.654C612.663,598.509 617.488,625.042 610.251,625.042C603.015,625.042 588.542,578.006 588.542,578.006L564.421,564.739L568.04,541.824Z" style="fill:rgb(255,191,191);fill-rule:nonzero;"/>
        </g>
        <g id="Ofina" transform="matrix(0.803657,-0.0656149,0.0721362,0.836437,-138.296,-6.30657)">
            <path d="M577.25,249.5C577.25,249.5 587.896,234.861 597.211,232.199C606.527,229.538 607.858,216.23 607.858,216.23C607.858,216.23 631.812,242.846 646.45,244.176C661.089,245.507 647.781,212.238 647.781,212.238L621.165,205.584L595.88,208.245L575.919,221.553L577.25,249.5Z" style="fill:rgb(47,46,65);fill-rule:nonzero;"/>
        </g>
        <g id="Torso" transform="matrix(0.985237,0.0044095,-0.00463466,1.03555,65.9977,-206.165)">
            <path d="M297.73,474.46C303.263,486.385 305.318,503.559 299.673,515.564C301.029,514.18 306.669,507.432 312.054,509.324C330.351,515.752 363.426,510.697 368.434,504.198C360.132,485.224 356.935,467.628 361.374,451.41C348.964,445.69 345.01,450.64 331.36,451.41C324.29,451.81 317.13,450.95 310.16,452.2C306.54,452.85 295.16,454.64 293.45,458.37C291.74,462.1 297.12,470.4 297.73,474.46Z" style="fill:rgb(251,190,190);fill-rule:nonzero;"/>
        </g>
        <g id="Tieň" transform="matrix(0.636409,-0.065479,0.0886662,0.861771,-205.748,-59.349)">
            <ellipse cx="857.87" cy="816.655" rx="159" ry="17" style="fill:rgb(63,61,86);fill-opacity:0.67;"/>
        </g>
        <g id="Gate" transform="matrix(0.803657,-0.0656149,0.0721362,0.836437,-138.296,-6.30657)">
            <path d="M582.483,436.604L552.361,459.813C552.361,459.813 476.59,500.409 486.238,535.384C495.886,570.36 520.276,558.323 520.276,558.323L570.647,568.459L576.678,541.926L534.466,531.071L605.427,504.437L607.839,627.454L598.191,715.495L625.748,717.489C625.748,717.489 654.565,618.582 650.946,584.813C650.946,584.813 688.566,448.622 662.785,435.413C661.361,434.683 662.193,436.641 656.663,437.563C648.364,438.946 632.276,439.814 627.225,440.114C605.82,441.385 582.483,436.604 582.483,436.604Z" style="fill:rgb(47,46,65);fill-rule:nonzero;"/>
        </g>
        <g id="Crop-Top" serif:id="Crop Top" transform="matrix(0.803657,-0.0656149,0.0721362,0.836437,-138.296,-6.30657)">
            <path d="M616.49,311.486L597.671,288.742L588.978,293.085L571.658,336.796C571.658,336.796 563.607,357.502 576.873,379.211L657.889,383.338C659.398,383.911 673.71,341.56 662.661,330.174C652.547,319.752 645.927,297.204 645.927,297.204L636.974,287.231L616.49,311.486Z" style="fill:rgb(202,97,44);fill-rule:nonzero;stroke:black;stroke-opacity:0.11;stroke-width:0.78px;"/>
        </g>
        <g id="Ľavá-noha" serif:id="Ľavá noha" transform="matrix(0.968971,-0.079112,0.0561297,0.650839,-225.295,134.66)">
            <path d="M600.603,710.671L598.426,745.324C598.426,745.324 588.815,759.108 597.257,763.932C601.218,766.196 608.628,765.409 610.59,769.712C614.085,777.631 623.368,785.13 632.005,784.55C636.121,784.209 639.589,782.581 640.432,778.352C640.904,775.67 640.226,772.909 638.565,770.752C629.668,758.73 615.711,750.499 615.711,750.499L618.09,712.631L600.603,710.671Z" style="fill:rgb(255,191,191);fill-rule:nonzero;"/>
        </g>
    </g>
    <g id="Srdiečka" transform="matrix(1.47556,0,0,1.47556,-204.82,3.44123)">
        <g transform="matrix(0.0565968,0.00836688,-0.00784992,0.0603241,420.522,253.31)">
            <path d="M426.985,248.842C401.383,223.24 359.248,223.24 333.646,248.842L333.629,248.86C321.32,236.912 304.825,230.222 287.671,230.222C251.474,230.222 221.689,260.008 221.689,296.204C221.689,313.358 228.378,329.854 240.326,342.162L240.308,342.18L333.646,435.518L426.985,342.18C439.357,329.807 446.316,313.009 446.316,295.511C446.316,278.013 439.357,261.215 426.985,248.842Z" style="fill:rgb(255,90,123);fill-rule:nonzero;"/>
        </g>
        <g transform="matrix(0.0560694,0.0117265,-0.0110019,0.059762,407.923,266.653)">
            <path d="M426.985,248.842C401.383,223.24 359.248,223.24 333.646,248.842L333.629,248.86C321.32,236.912 304.825,230.222 287.671,230.222C251.474,230.222 221.689,260.008 221.689,296.204C221.689,313.358 228.378,329.854 240.326,342.162L240.308,342.18L333.646,435.518L426.985,342.18C439.357,329.807 446.316,313.009 446.316,295.511C446.316,278.013 439.357,261.215 426.985,248.842Z" style="fill:rgb(255,90,123);fill-rule:nonzero;"/>
        </g>
        <g transform="matrix(0.0535665,-0.0211955,0.0198859,0.0570942,320.097,269.622)">
            <path d="M426.985,248.842C401.383,223.24 359.248,223.24 333.646,248.842L333.629,248.86C321.32,236.912 304.825,230.222 287.671,230.222C251.474,230.222 221.689,260.008 221.689,296.204C221.689,313.358 228.378,329.854 240.326,342.162L240.308,342.18L333.646,435.518L426.985,342.18C439.357,329.807 446.316,313.009 446.316,295.511C446.316,278.013 439.357,261.215 426.985,248.842Z" style="fill:rgb(255,90,123);fill-rule:nonzero;"/>
        </g>
        <g transform="matrix(0.0415634,-0.0205053,0.018148,0.0417899,336.649,291.267)">
            <path d="M426.985,248.842C401.383,223.24 359.248,223.24 333.646,248.842L333.629,248.86C321.32,236.912 304.825,230.222 287.671,230.222C251.474,230.222 221.689,260.008 221.689,296.204C221.689,313.358 228.378,329.854 240.326,342.162L240.308,342.18L333.646,435.518L426.985,342.18C439.357,329.807 446.316,313.009 446.316,295.511C446.316,278.013 439.357,261.215 426.985,248.842Z" style="fill:rgb(255,90,123);fill-rule:nonzero;"/>
        </g>
        <g transform="matrix(0.0312663,-0.0106045,0.00878653,0.0299495,343.661,279.073)">
            <path d="M426.985,248.842C401.383,223.24 359.248,223.24 333.646,248.842L333.629,248.86C321.32,236.912 304.825,230.222 287.671,230.222C251.474,230.222 221.689,260.008 221.689,296.204C221.689,313.358 228.378,329.854 240.326,342.162L240.308,342.18L333.646,435.518L426.985,342.18C439.357,329.807 446.316,313.009 446.316,295.511C446.316,278.013 439.357,261.215 426.985,248.842Z" style="fill:rgb(255,90,123);fill-rule:nonzero;"/>
        </g>
    </g>
    <g id="Womb" transform="matrix(1.2676,0,0,1.1313,-119.934,99.1573)">
        <g transform="matrix(0.0929581,0,0,0.0977776,315.122,269.544)">
            <path d="M584.321,467.347C584.487,469.82 585.688,472.145 586.822,474.348C587.962,476.562 589.605,478.616 591.16,480.631C592.906,482.894 594.996,485.733 597.297,487.924C599.833,490.338 603.186,492.986 606.374,495.116C609.562,497.246 612.845,499.339 616.427,500.705C620.098,502.106 625.495,503.05 629.4,503.519C633.191,503.974 637.708,504.244 640.854,503.519C643.648,502.875 645.962,500.864 648.275,499.17C651.165,497.055 655.396,494.118 658.194,490.825C661.038,487.478 663.815,483 665.336,479.087C666.775,475.388 667.321,471.041 667.321,467.347C667.321,463.812 665.847,460.125 664.336,456.928C662.526,453.095 658.86,448.193 655.458,444.352C651.668,440.073 645.288,434.495 641.6,431.256C638.991,428.965 636.03,425.976 633.331,424.92C630.872,423.958 627.923,424.92 625.41,424.92C623.024,424.92 620.61,424.555 618.253,424.92C615.788,425.302 613.01,426.053 610.618,427.21C608.108,428.423 605.413,430.641 603.193,432.201C601.191,433.608 596.866,436.271 597.297,436.572C597.728,436.872 593.867,438.88 592.646,440.177C591.514,441.38 590.752,442.894 589.973,444.352C589.137,445.914 588.252,447.753 587.635,449.549C586.915,451.645 586.117,454.424 585.651,456.928C585.098,459.894 584.126,464.444 584.321,467.347Z" style="fill:rgb(255,220,192);fill-opacity:0.93;stroke:black;stroke-width:5.25px;stroke-linecap:round;stroke-miterlimit:1.5;"/>
        </g>
        <g transform="matrix(0.0805977,0,0,0.0927515,323.2,271.9)">
            <path d="M584.321,467.347C584.487,469.82 585.688,472.145 586.822,474.348C587.962,476.562 589.605,478.616 591.16,480.631C592.906,482.894 594.996,485.733 597.297,487.924C599.833,490.338 603.186,492.986 606.374,495.116C609.562,497.246 612.845,499.339 616.427,500.705C620.098,502.106 625.495,503.05 629.4,503.519C633.191,503.974 637.708,504.244 640.854,503.519C643.648,502.875 645.962,500.864 648.275,499.17C651.165,497.055 655.396,494.118 658.194,490.825C661.038,487.478 663.815,483 665.336,479.087C666.775,475.388 667.321,471.041 667.321,467.347C667.321,463.812 665.847,460.125 664.336,456.928C662.526,453.095 658.86,448.193 655.458,444.352C651.668,440.073 645.288,434.495 641.6,431.256C638.991,428.965 636.03,425.976 633.331,424.92C630.872,423.958 627.923,424.92 625.41,424.92C623.024,424.92 620.61,424.555 618.253,424.92C615.788,425.302 613.01,426.053 610.618,427.21C608.108,428.423 605.413,430.641 603.193,432.201C601.191,433.608 596.866,436.271 597.297,436.572C597.728,436.872 593.867,438.88 592.646,440.177C591.514,441.38 590.752,442.894 589.973,444.352C589.137,445.914 588.252,447.753 587.635,449.549C586.915,451.645 586.117,454.424 585.651,456.928C585.098,459.894 584.126,464.444 584.321,467.347Z" style="fill:rgb(244,230,219);fill-opacity:0.93;"/>
        </g>
        <g transform="matrix(0.0929581,0,0,0.0977776,315.122,269.544)">
            <path d="M963.943,410.546L953.774,418.595L949.052,424.11L941.497,438.559L939.03,446.37L939.03,457.105L943.182,469.156L950.774,479.134L960.943,483.904L981.731,483.904L992.631,480.813L1004.28,473.694L1015.12,461.255L1018.94,452.105L1020.88,438.343L1016.41,428.609L1011.63,421.757L1002.85,415.602L992.411,410.546L984.731,409.337L974.476,408.478L963.943,410.546Z" style="fill:rgb(255,220,192);fill-opacity:0.93;stroke:rgb(5,5,5);stroke-width:5.69px;stroke-linecap:round;stroke-miterlimit:1.5;"/>
        </g>
        <g transform="matrix(0.0826022,0,0,0.0951423,324.967,270.729)">
            <path d="M963.943,410.546L953.774,418.595L949.052,424.11L941.497,438.559L939.03,446.37L939.03,457.105L943.182,469.156L950.774,479.134L960.943,483.904L981.731,483.904L992.631,480.813L1004.28,473.694L1015.12,461.255L1018.94,452.105L1020.88,438.343L1016.41,428.609L1011.63,421.757L1002.85,415.602L992.411,410.546L984.731,409.337L974.476,408.478L963.943,410.546Z" style="fill:rgb(244,230,219);fill-opacity:0.93;"/>
        </g>
        <g transform="matrix(0.0929581,0,0,0.0977776,353.824,282.129)">
            <path d="M168.624,346.3C167.098,337.995 169.476,315.091 178.831,309.601C185.109,305.917 190.311,299.267 196.808,297.201C203.306,295.134 214.88,295.957 214.88,295.957C224.24,297.59 224.78,290.109 212.296,287.624C207.552,286.679 203.397,286.105 196.808,283.336C189.273,280.169 179.625,273.634 172.603,268.623C166.199,264.054 159.435,259.537 154.677,253.272C149.513,246.471 143.312,236.17 141.618,227.819C139.973,219.71 141.767,210.219 144.511,203.165C147.203,196.244 153.398,190.009 158.08,185.495C162.234,181.492 167.91,178.205 172.603,176.082C176.865,174.155 181.586,173.271 186.236,172.762C191.289,172.208 197.661,171.885 202.925,172.762C208.118,173.627 214.199,175.9 217.817,178.022C220.725,179.728 222.375,182.992 224.633,185.495C227.882,189.099 234.279,194.083 237.312,199.642C240.475,205.438 241.624,213.361 243.61,220.271C245.761,227.755 247.629,236.57 250.219,244.546C253.12,253.479 256.558,264.454 261.015,273.867C265.795,283.959 272.833,294.877 278.895,305.099C284.902,315.228 290.822,325.426 297.39,335.201C304.009,345.051 312.74,355.511 318.609,364.197C323.651,371.66 329.051,381.165 332.602,387.313C335.2,391.812 338.036,396.234 339.91,401.08C341.821,406.018 343.37,411.553 344.062,416.94C344.754,422.326 344.062,427.913 344.062,433.399L344.062,451.092C344.062,457.476 341.477,466.725 344.062,471.707C346.647,476.69 353.818,479.197 359.57,480.985C366.265,483.065 375.94,484.193 384.23,484.193C393.179,484.193 403.828,483.385 413.265,480.985C423.998,478.254 443.374,474.237 448.629,467.808C453.884,461.38 445.364,450.954 444.795,442.412C444.156,432.82 444.229,420.961 444.795,410.258C445.434,398.174 444.877,382.421 448.629,369.912C452.38,357.402 462.059,347.248 467.302,335.201C474.27,319.194 483.767,294.676 490.434,273.867C497.485,251.861 507.449,220.714 509.608,203.165C511.038,191.538 505.911,176.469 503.384,168.575C501.799,163.624 494.443,156.273 494.443,155.798C494.443,155.323 501.529,165.726 503.384,165.726C505.238,165.726 503.51,158.487 505.572,155.798C508.877,151.488 517.531,143.544 523.216,139.863C528.135,136.679 535.501,135.135 539.683,133.713C542.506,132.753 545.344,131.677 548.305,131.333C551.717,130.936 556.595,130.936 560.151,131.333C563.393,131.695 566.656,132.402 569.643,133.713C572.88,135.135 576.526,137.441 579.576,139.863C582.984,142.569 587.3,146.294 590.09,149.949C592.796,153.495 594.649,157.656 596.315,161.794C598.389,166.947 601.031,174.561 602.535,180.869C604.002,187.023 605.34,193.315 605.34,199.642C605.34,206.209 604.039,213.661 602.535,220.271C601.054,226.777 598.841,233.797 596.315,239.297C594.007,244.322 591.032,249.149 587.376,253.272C583.72,257.394 578.918,261.11 574.38,264.031C569.964,266.875 564.497,269.163 560.151,270.802C556.335,272.242 550.767,272.617 548.305,273.867C546.726,274.669 545.588,276.947 545.379,278.303C545.173,279.64 545.725,281.73 547.05,282.002C548.647,282.329 552.275,280.548 554.959,280.265C557.701,279.975 560.658,280.111 563.501,280.265C566.379,280.42 569.546,280.685 572.225,281.197C574.732,281.676 577.227,282.339 579.576,283.336C582.101,284.407 584.922,285.956 587.376,287.624C590.166,289.519 593.823,291.837 596.315,294.709C598.841,297.622 601.031,302.617 602.535,305.099C603.451,306.611 604.089,308.851 605.34,309.601C606.591,310.351 609.002,310.026 610.041,309.601C610.959,309.225 611.42,308.031 611.574,307.051C611.829,305.419 611.792,302.216 611.574,299.814C611.318,296.997 610.599,293.362 610.041,290.148C609.474,286.89 608.465,283.605 608.176,280.265C607.865,276.678 607.865,271.924 608.176,268.623C608.437,265.845 609.083,263.084 610.041,260.463C611.506,256.45 614.89,249.048 616.969,244.546C618.701,240.793 620.934,237.273 622.511,233.451C624.18,229.405 625.955,224.795 626.982,220.271C628.261,214.636 629.682,206.582 630.185,199.642C630.719,192.277 631.098,183.39 630.185,176.082C629.317,169.133 627.49,162.226 624.709,155.798C621.779,149.023 616.762,141.043 612.602,135.432C608.93,130.48 604.566,125.979 599.748,122.133C594.243,117.739 585.28,112.129 579.576,109.068C575.165,106.701 570.412,104.854 565.525,103.767C560.313,102.609 554.066,102.38 548.305,102.117C542.28,101.842 535.244,101.842 529.374,102.117C523.921,102.372 518.372,102.851 513.081,103.767C507.851,104.674 502.036,106.312 497.629,107.617C493.893,108.723 489.571,110.545 486.638,111.594C484.441,112.38 482.322,113.526 480.033,113.913C477.745,114.299 475.211,114.492 472.908,113.913C469.699,113.105 464.731,110.895 460.779,109.068C454.769,106.291 445.342,99.9 436.85,97.248C427.743,94.404 415.801,92.879 406.133,92.005C397.072,91.186 387.434,91.65 378.839,92.005C370.724,92.341 362.546,92.622 354.566,94.138C345.7,95.824 334.161,99.208 325.64,102.117C318.027,104.717 310.179,108.258 303.444,111.594C297.158,114.707 290.43,118.843 285.229,122.133C280.745,124.969 276.275,128.832 272.239,131.333C268.659,133.552 265.052,135.937 261.015,137.14C256.244,138.562 249.472,139.51 243.61,139.863C236.086,140.317 224.678,139.562 215.87,139.863C207.484,140.15 198.636,140.569 190.762,141.67C183.284,142.715 175.542,144.298 168.624,146.466C161.931,148.564 153.752,152.378 149.251,154.681C146.442,156.118 143.9,158.101 141.618,160.281C138.755,163.015 135.083,167.34 132.071,171.086C128.691,175.288 124.333,180.308 121.34,185.495C118.256,190.842 115.489,197.885 113.566,203.165C111.911,207.709 110.399,212.378 109.802,217.177C109.175,222.224 109.175,228.154 109.802,233.451C110.428,238.733 111.908,243.904 113.566,248.958C115.489,254.82 118.501,262.894 121.34,268.623C123.914,273.816 127.396,278.988 130.605,283.336C133.6,287.395 137.481,290.757 140.589,294.709C143.695,298.66 146.903,303.182 149.251,307.051C151.352,310.512 152.793,314.336 154.677,317.92C156.709,321.786 160.052,326.645 161.44,330.247C162.57,333.177 162.749,337.285 163.01,339.534C163.172,340.929 162.631,342.618 163.01,343.746C163.374,344.827 164.351,345.874 165.287,346.3C166.223,346.726 168.825,347.394 168.624,346.3Z" style="fill:rgb(255,145,130);fill-opacity:0.93;stroke:black;stroke-width:4.81px;stroke-linecap:round;stroke-miterlimit:1.5;"/>
        </g>
        <g transform="matrix(-0.0841813,0,0,0.150793,466.736,273.043)">
            <path d="M888.123,241.119C889.338,243.179 904.727,259.173 918.953,254.879C921.583,254.085 937.869,240.298 937.95,241.119C938.572,247.483 931.931,272.916 926.012,279.085C918.285,287.139 902.026,286.378 897.309,277.82C894.522,272.765 885.604,236.845 888.123,241.119Z" style="fill:rgb(68,37,37);stroke:black;stroke-width:1.76px;stroke-linecap:round;stroke-miterlimit:1.5;"/>
        </g>
        <g transform="matrix(0.125508,0,0,0.185413,338.845,259.543)">
            <ellipse cx="458.638" cy="262.527" rx="4.511" ry="7.781" style="fill:rgb(255,186,248);fill-opacity:0.93;"/>
        </g>
        <g transform="matrix(0.163901,0,0,0.19628,307.27,257.782)">
            <ellipse cx="458.638" cy="262.527" rx="4.511" ry="7.781" style="fill:rgb(255,186,248);fill-opacity:0.93;"/>
        </g>
        <g transform="matrix(0.0824802,0,0,0.0867565,357.841,287.012)">
            <path d="M444.795,442.412C446.232,447.323 439.236,460.571 424.79,467.808C395.688,482.39 346.267,485.059 344.062,433.399C343.819,427.713 344.062,445.194 344.062,451.092C344.062,457.476 341.477,466.725 344.062,471.707C346.647,476.69 353.818,479.197 359.57,480.985C366.265,483.065 375.94,484.193 384.23,484.193C393.179,484.193 403.828,483.385 413.265,480.985C423.998,478.254 444.357,474.928 448.629,467.808C452.427,461.478 443.109,442.525 444.795,442.412Z" style="fill:rgb(236,139,139);fill-opacity:0.93;"/>
        </g>
        <g transform="matrix(0.138888,0,0,0.145678,336.64,270.258)">
            <ellipse cx="410.038" cy="230.632" rx="7.537" ry="16.365" style="fill:rgb(56,42,42);stroke:black;stroke-width:1.17px;stroke-linecap:round;stroke-miterlimit:1.5;"/>
        </g>
        <g transform="matrix(0.141067,0,0,0.147963,327.162,270.131)">
            <ellipse cx="410.038" cy="230.632" rx="7.537" ry="16.365" style="fill:rgb(56,42,42);stroke:black;stroke-width:1.15px;stroke-linecap:round;stroke-miterlimit:1.5;"/>
        </g>
        <g transform="matrix(0.154503,0,0,0.163246,331.746,268.169)">
            <ellipse cx="404.034" cy="222.522" rx="2.349" ry="4.186" style="fill:rgb(235,235,235);stroke:black;stroke-width:1.05px;stroke-linecap:round;stroke-miterlimit:1.5;"/>
        </g>
        <g transform="matrix(0.156926,0,0,0.165807,322.192,268.009)">
            <ellipse cx="404.034" cy="222.522" rx="2.349" ry="4.186" style="fill:rgb(235,235,235);stroke:black;stroke-width:1.03px;stroke-linecap:round;stroke-miterlimit:1.5;"/>
        </g>
    </g>
    <g id="Odraz-zrkadla" serif:id="Odraz zrkadla" transform="matrix(1.47556,0,0,1.47556,-190.306,18.821)">
        <path d="M216.5,24.5L442.5,24.5L521.5,594.5L288.5,626.5L216.5,24.5Z" style="fill:rgb(233,253,255);fill-opacity:0.08;fill-rule:nonzero;"/>
    </g>
    <g id="Teta" transform="matrix(1.47556,0,0,1.47556,-204.82,3.44123)">
        <g id="Pravá-nohavica-2" serif:id="Pravá nohavica 2" transform="matrix(1.02265,0,0,1.03709,-284.589,-184.297)">
            <path d="M916.834,653.632C916.834,653.632 932.761,657.156 930.083,669.418C927.405,681.681 946.715,697.608 948.547,700.286C950.38,702.964 953.058,704.091 951.366,708.179C949.675,712.266 990.691,769.914 982.516,775.129C974.341,780.344 908.095,800.781 902.175,796.694C896.256,792.607 891.463,658.847 891.463,658.847L916.834,653.632Z" style="fill:rgb(47,46,65);fill-rule:nonzero;"/>
        </g>
        <g id="Pravá-nohavica" serif:id="Pravá nohavica" transform="matrix(1.02265,0,0,1.03709,-284.589,-184.297)">
            <path d="M916.834,653.632C916.834,653.632 932.761,657.156 930.083,669.418C927.405,681.681 946.715,697.608 948.547,700.286C950.38,702.964 953.058,704.091 951.366,708.179C949.675,712.266 990.691,769.914 982.516,775.129C974.341,780.344 908.095,800.781 902.175,796.694C896.256,792.607 891.463,658.847 891.463,658.847L916.834,653.632Z" style="fill-opacity:0.1;fill-rule:nonzero;"/>
        </g>
        <g id="tieň" transform="matrix(1.02265,0,0,1.03709,-247.547,-149.894)">
            <ellipse cx="857.87" cy="816.655" rx="159" ry="17" style="fill:rgb(63,61,86);fill-opacity:0.67;"/>
        </g>
        <g id="Ľavá-noha1" serif:id="Ľavá noha" transform="matrix(1.02265,0,0,1.03709,-284.589,-184.297)">
            <path d="M880.61,799.09C880.61,799.09 870.744,831.226 877.369,843.207C883.993,855.187 842.351,846.598 842.351,846.598C842.351,846.598 821.696,847.242 815.776,848.369C809.856,849.497 788.713,847.012 794.632,843.207C800.552,839.401 811.405,831.931 824.09,827.843C836.776,823.756 855.804,814.312 853.83,797.258C851.857,780.203 880.61,799.09 880.61,799.09Z" style="fill:rgb(255,185,185);fill-rule:nonzero;"/>
        </g>
        <g id="Pravá-noha1" serif:id="Pravá noha" transform="matrix(1.02265,0,0,1.03709,-284.589,-184.297)">
            <path d="M961.835,765.94C961.835,765.94 969.364,798.703 981.093,805.764C992.821,812.825 952.466,826.215 952.466,826.215C952.466,826.215 934.902,837.103 930.34,841.04C925.777,844.978 906.226,853.401 909.449,847.145C912.671,840.889 918.333,828.992 927.273,819.108C936.213,809.223 947.967,791.529 937.728,777.748C927.49,763.966 961.835,765.94 961.835,765.94Z" style="fill:rgb(255,185,185);fill-rule:nonzero;"/>
        </g>
        <g id="Ľavá-nohavica" serif:id="Ľavá nohavica" transform="matrix(1.02265,0,0,1.03709,-284.589,-184.297)">
            <path d="M862.146,477.871C867.606,473.971 874.185,471.943 880.892,472.092C891.745,472.515 927.264,480.971 926.277,482.663C925.304,484.151 924.22,485.565 923.036,486.891C921.851,488.218 925.291,497.18 924.304,498.167C923.318,499.154 943.614,522.41 931.774,572.305C919.935,622.201 921.203,656.733 921.203,656.733C921.203,656.733 925.996,803.037 912.324,805.997C898.652,808.956 844.81,806.983 842.273,801.204C839.736,795.425 850.025,615.999 850.025,615.999C850.025,615.999 855.747,526.107 856.791,515.171C857.866,503.914 862.146,477.871 862.146,477.871Z" style="fill:rgb(47,46,65);fill-rule:nonzero;"/>
        </g>
        <g id="Hlava1" serif:id="Hlava" transform="matrix(0.942849,0,0,1.1762,-195.788,-183.601)">
            <circle cx="888.013" cy="283.383" r="33.968" style="fill:rgb(255,185,185);"/>
        </g>
        <g id="Krk1" serif:id="Krk" transform="matrix(0.985258,0,0,1.09991,-270.575,-201.058)">
            <path d="M919.089,339.037C919.089,339.037 928.596,351.731 922.294,364.93C919.682,370.402 907.128,372.281 901.521,379.217C882.353,402.926 946.098,390.537 947.279,374.28C947.279,374.28 945.305,333.681 947.279,326.07C949.252,318.459 919.089,339.037 919.089,339.037Z" style="fill:rgb(255,185,185);fill-rule:nonzero;"/>
        </g>
        <g id="Vlasy1" serif:id="Vlasy" transform="matrix(0.985258,0,0,1.09991,-270.575,-201.058)">
            <path d="M993.828,348.319C987.339,338.551 981.981,322.84 976.2,309.004C974.326,304.52 972.614,299.977 970.938,295.415C967.56,286.22 952.853,274.352 933.591,274.352C911.576,274.352 893.729,285.431 893.729,294.726C893.729,302.411 905.933,308.889 922.601,310.904C916.745,323.975 913.217,338.482 913.217,348.319C913.217,370.579 931.262,361.163 953.522,361.163C975.782,361.163 1006.14,366.86 993.828,348.319Z" style="fill:rgb(47,46,65);fill-rule:nonzero;"/>
        </g>
        <g id="Ústa" transform="matrix(0.284258,0,0,0.564637,354.899,-29.273)">
            <path d="M945.266,338.724C941.237,343.691 914.497,356.348 914.497,356.348C914.758,355.983 903.488,345.284 902.414,341.206C908.744,342.533 923.769,340.785 945.266,338.724Z" style="fill:rgb(47,46,65);fill-opacity:0.51;fill-rule:nonzero;"/>
        </g>
        <g id="Ľavá-ruka1" serif:id="Ľavá ruka" transform="matrix(-1.04833,0.403348,0.359091,0.933303,1437.56,-436.643)">
            <path d="M777.92,228.34L768.15,236.49C768.15,236.49 766.99,235.13 765.26,232.93C758.47,224.26 742.86,202.51 753.89,198.62C764.92,194.73 773.64,215.94 776.72,224.7C777.5,226.92 777.92,228.34 777.92,228.34Z" style="fill:rgb(255,185,185);fill-rule:nonzero;"/>
        </g>
        <g id="Pravá-ruka1" serif:id="Pravá ruka" transform="matrix(-1.04875,0.402253,0.358115,0.933677,1518.72,-505.359)">
            <path d="M954.28,225.49C950.21,231.6 944.51,225.49 944.51,225.49C944.51,225.49 943.78,224.4 942.75,222.64C939.4,216.97 932.83,204.4 937.18,199.42C942.18,193.73 954.57,213.15 954.95,222.26C955.068,223.38 954.833,224.509 954.28,225.49Z" style="fill:rgb(255,185,185);fill-rule:nonzero;"/>
        </g>
        <g id="Tričko" transform="matrix(-1.11115,-0.164401,-0.146362,0.989231,1665.01,40.6124)">
            <path d="M859.38,313.87C859.38,313.87 862.944,317.433 849.094,304.803C849.094,304.803 842.421,268.267 840.421,260.937L842.649,188.139C842.649,188.139 827.881,186.637 823.801,185.007L823.756,279.133C823.756,279.133 825.149,316.413 829.629,318.813L836.311,343.843L849.6,375C849.6,375 855.303,412.775 846.743,419.295C846.743,419.295 894.791,431.946 904.971,423.796C904.971,423.796 901.807,367.357 906.287,362.447C906.287,362.447 919.639,350.134 910.269,332.214C910.269,332.214 908.368,327.775 913.628,322.885C918.888,317.995 925.706,296.076 925.706,296.076C925.706,296.076 932.029,271.238 932.029,265.948C932.029,265.948 939.55,212.413 937.96,203.043C937.96,203.043 925.096,202.432 922.246,200.432C922.246,200.432 918.745,261.89 917.115,263.47C915.485,265.05 913.609,289.837 900.358,297.315C886.553,305.106 885.533,312.54 885.533,312.54C884.74,312.691 909.808,328.822 896.88,336.71C882.871,345.258 859.38,313.87 859.38,313.87Z" style="fill:rgb(255,170,196);fill-rule:nonzero;"/>
        </g>
    </g>
    <g id="Srdiečka-vonku" serif:id="Srdiečka vonku" transform="matrix(1.47556,0,0,1.47556,-204.82,3.44123)">
        <g transform="matrix(0.485121,0.0946106,-0.100479,0.51521,419.711,-33.7891)">
            <path d="M892.465,326.366C892.941,324.961 893.185,323.488 893.185,322.005C893.185,314.561 887.059,308.436 879.616,308.436C873.817,308.436 868.631,312.153 866.767,317.643L858.044,343.341L883.742,352.064C885.146,352.54 886.62,352.784 888.103,352.784C895.547,352.784 901.672,346.658 901.672,339.215C901.672,333.417 897.955,328.23 892.465,326.366Z" style="fill:rgb(225,192,203);fill-rule:nonzero;"/>
        </g>
        <g transform="matrix(0.485121,0.0946106,-0.100479,0.51521,419.711,-33.7891)">
            <path d="M845.594,386.6C846.07,385.195 846.314,383.722 846.314,382.239C846.314,374.795 840.188,368.67 832.745,368.67C826.947,368.67 821.76,372.386 819.896,377.877L811.173,403.574L836.871,412.297C838.275,412.774 839.749,413.017 841.232,413.017C848.676,413.017 854.801,406.892 854.801,399.449C854.801,393.65 851.084,388.464 845.594,386.6Z" style="fill:rgb(225,192,203);fill-rule:nonzero;"/>
        </g>
        <g transform="matrix(0.485121,0.0946106,-0.100479,0.51521,419.711,-33.7891)">
            <path d="M828.096,303.364C825.566,299.69 821.381,297.491 816.921,297.491C809.478,297.491 803.352,303.616 803.352,311.06C803.352,313.814 804.191,316.505 805.757,318.771L821.164,341.111L843.504,325.703C847.173,323.173 849.369,318.99 849.369,314.533C849.369,307.09 843.244,300.965 835.8,300.965C833.049,300.965 830.361,301.801 828.096,303.364Z" style="fill:rgb(225,192,203);fill-rule:nonzero;"/>
        </g>
        <g transform="matrix(0.485121,0.0946106,-0.100479,0.51521,419.711,-33.7891)">
            <path d="M789.599,126.062C791.968,121.693 796.556,118.962 801.526,118.962C808.97,118.962 815.095,125.088 815.095,132.531C815.095,134.79 814.531,137.014 813.454,139L800.516,162.855L776.661,149.917C772.292,147.548 769.561,142.96 769.561,137.99C769.561,130.546 775.686,124.421 783.13,124.421C785.389,124.421 787.613,124.985 789.599,126.062L789.599,126.062Z" style="fill:rgb(225,192,203);fill-rule:nonzero;"/>
        </g>
        <g transform="matrix(0.485121,0.0946106,-0.100479,0.51521,419.711,-33.7891)">
            <path d="M777.219,201.373C779.589,197.004 784.177,194.273 789.147,194.273C796.591,194.273 802.716,200.399 802.716,207.842C802.716,210.101 802.151,212.325 801.074,214.311L788.137,238.166L764.282,225.228C759.913,222.859 757.182,218.271 757.182,213.301C757.182,205.857 763.307,199.732 770.75,199.732C773.01,199.732 775.233,200.296 777.219,201.373L777.219,201.373Z" style="fill:rgb(225,192,203);fill-rule:nonzero;"/>
        </g>
        <g transform="matrix(0.485121,0.0946106,-0.100479,0.51521,419.711,-33.7891)">
            <path d="M850.198,157.687C850.841,157.594 851.49,157.547 852.14,157.547C859.583,157.547 865.709,163.672 865.709,171.116C865.709,177.837 860.715,183.596 854.061,184.548L827.2,188.411L823.337,161.549C823.245,160.91 823.199,160.264 823.199,159.618C823.199,152.174 829.324,146.049 836.768,146.049C843.485,146.049 849.242,151.038 850.198,157.687Z" style="fill:rgb(225,192,203);fill-rule:nonzero;"/>
        </g>
        <g transform="matrix(0.694768,0.135497,-0.135354,0.694034,114.537,-311.343)">
            <path d="M747.87,520.089C747.592,520.055 747.313,520.039 747.034,520.039C743.189,520.039 740.026,523.202 740.026,527.047C740.026,530.578 742.693,533.585 746.199,534.006L760.116,535.677L761.787,521.76C761.82,521.482 761.837,521.203 761.837,520.924C761.837,517.079 758.673,513.916 754.828,513.916C751.298,513.916 748.291,516.583 747.87,520.089Z" style="fill:rgb(225,192,203);fill-rule:nonzero;"/>
        </g>
        <g transform="matrix(0.694768,0.135497,-0.135354,0.694034,144.13,-205.962)">
            <path d="M915.599,453.212C914.551,452.623 913.368,452.313 912.164,452.313C908.32,452.313 905.156,455.477 905.156,459.321C905.156,461.845 906.519,464.181 908.716,465.423L920.927,472.306L927.81,460.095C928.405,459.043 928.717,457.855 928.717,456.647C928.717,452.802 925.553,449.638 921.708,449.638C919.179,449.638 916.839,451.008 915.599,453.212Z" style="fill:rgb(225,192,203);fill-rule:nonzero;"/>
        </g>
        <g transform="matrix(0.353929,0.613022,-0.612375,0.353555,784.496,-417.192)">
            <path d="M840.87,548.089C840.592,548.055 840.313,548.039 840.034,548.039C836.189,548.039 833.026,551.202 833.026,555.047C833.026,558.578 835.693,561.585 839.199,562.006L853.116,563.677L854.787,549.76C854.82,549.482 854.837,549.203 854.837,548.924C854.837,545.079 851.673,541.916 847.828,541.916C844.298,541.916 841.291,544.583 840.87,548.089Z" style="fill:rgb(225,192,203);fill-rule:nonzero;"/>
        </g>
        <g transform="matrix(0.485121,0.0946106,-0.100479,0.51521,419.711,-33.7891)">
            <path d="M858.424,343.766C853.585,336.543 845.044,332.659 836.42,333.761C823.591,335.59 814.729,348.238 812.085,360.923C809.441,373.608 811.404,386.736 811.443,399.694C811.496,417.098 807.83,434.933 798.136,449.388C788.441,463.843 772.105,474.428 754.701,474.461C738.546,474.493 723.791,465.907 709.945,457.586" style="fill:none;fill-rule:nonzero;stroke:rgb(159,93,123);stroke-width:1px;stroke-linejoin:miter;stroke-miterlimit:10;"/>
        </g>
        <g transform="matrix(0.485121,0.0946106,-0.100479,0.51521,419.711,-33.7891)">
            <path d="M799.946,162.865C808.535,161.512 817.185,165.143 822.234,172.222C829.604,182.88 826.339,197.974 818.823,208.53C811.308,219.086 800.34,226.561 790.802,235.332C777.991,247.114 767.39,261.917 763.364,278.85C759.338,295.782 762.663,314.962 774.459,327.76C785.407,339.639 801.729,344.638 817.241,349.15" style="fill:none;fill-rule:nonzero;stroke:rgb(159,93,123);stroke-width:1px;stroke-linejoin:miter;stroke-miterlimit:10;"/>
        </g>
    </g>
    <g transform="matrix(0.963124,-0.129843,0.129843,0.963124,-43.0968,773.565)">
        <text x="359.585px" y="268.318px" style="font-family:'LucidaGrande-Bold', 'Lucida Grande', sans-serif;font-weight:600;font-size:22.139px;fill:rgb(204,117,120);">@ownyourcycle</text>
    </g>
</svg>
