<?xml version="1.0" encoding="UTF-8" standalone="no"?>
<!DOCTYPE svg PUBLIC "-//W3C//DTD SVG 1.1//EN" "http://www.w3.org/Graphics/SVG/1.1/DTD/svg11.dtd">
<svg width="100%" height="100%" viewBox="0 0 1023 806" version="1.1" xmlns="http://www.w3.org/2000/svg" xmlns:xlink="http://www.w3.org/1999/xlink" xml:space="preserve" xmlns:serif="http://www.serif.com/" style="fill-rule:evenodd;clip-rule:evenodd;stroke-miterlimit:10;">
    <g transform="matrix(1.18904,0,0,1.18904,-89.5555,-150.491)">
        <g transform="matrix(1,0,0,1,-83.5665,-47.7388)">
            <path d="M955.66,704.53L210.66,704.53C201.54,704.53 194.15,709.12 194.15,714.78L194.15,820.78C194.15,826.44 201.54,831.03 210.66,831.03L955.66,831.03C964.78,831.03 972.18,826.44 972.18,820.78L972.18,714.78C972.18,709.12 964.78,704.53 955.66,704.53Z" style="fill:rgb(251,238,225);fill-rule:nonzero;"/>
        </g>
        <g transform="matrix(1,0,0,1,-83.5665,-47.7388)">
            <path d="M955.66,704.53L210.66,704.53C201.54,704.53 194.15,709.12 194.15,714.78L194.15,820.78C194.15,826.44 201.54,831.03 210.66,831.03L955.66,831.03C964.78,831.03 972.18,826.44 972.18,820.78L972.18,714.78C972.18,709.12 964.78,704.53 955.66,704.53Z" style="fill-opacity:0.2;fill-rule:nonzero;"/>
        </g>
        <g transform="matrix(1,0,0,1,110.614,21.5312)">
            <path d="M778,647.11C778,640.57 772.69,635.26 766.15,635.26L11.85,635.26C5.31,635.26 0,640.57 0,647.11L0,742.53C0,749.07 5.31,754.38 11.85,754.38L766.15,754.38C772.69,754.38 778,749.07 778,742.53L778,647.11Z" style="fill:rgb(198,227,255);"/>
        </g>
        <g transform="matrix(1,0,0,1,110.614,21.5312)">
            <rect x="0" y="651.69" width="778" height="10.27" style="fill:white;fill-opacity:0.05;"/>
        </g>
        <g transform="matrix(1,0,0,1,110.614,21.5312)">
            <rect x="0" y="675.65" width="778" height="10.27" style="fill:white;fill-opacity:0.05;"/>
        </g>
        <g transform="matrix(1,0,0,1,110.614,21.5312)">
            <rect x="0" y="699.61" width="778" height="10.27" style="fill:white;fill-opacity:0.05;"/>
        </g>
        <g transform="matrix(1,0,0,1,110.614,21.5312)">
            <rect x="0" y="723.57" width="778" height="10.27" style="fill:white;fill-opacity:0.05;"/>
        </g>
    </g>
    <g id="Sparkels" transform="matrix(1,0,0,1,-4.48813,-35.853)">
        <g id="Sparkles">
            <g transform="matrix(1,0,0,1,-78.6963,-112.348)">
                <path d="M854.32,278.35C849.933,275.211 843.843,275.777 840.11,279.67C836.06,284.08 836.257,291.007 840.55,295.18L854.13,308.68C855.011,309.56 856.459,309.56 857.34,308.68L870.84,295.1C875.11,290.905 875.271,283.978 871.2,279.59C867.454,275.716 861.365,275.18 857,278.34C856.203,278.916 855.121,278.92 854.32,278.35Z" style="fill:rgb(222,124,149);fill-rule:nonzero;"/>
            </g>
            <g transform="matrix(1,0,0,1,-78.6963,-112.348)">
                <path d="M855.83,308.15C855.514,308.74 855.514,309.45 855.83,310.04C856.022,310.324 856.199,310.618 856.36,310.92C856.71,311.79 856.1,312.74 855.48,313.45C855.09,313.9 854.66,314.5 854.91,315.05C855.033,315.248 855.188,315.424 855.37,315.57C856.025,316.199 856.395,317.069 856.395,317.978C856.395,319.416 855.466,320.7 854.1,321.15" style="fill:rgb(222,124,149);fill-rule:nonzero;stroke:rgb(245,95,68);stroke-width:1px;"/>
            </g>
            <g transform="matrix(1,0,0,1,-78.6963,-112.348)">
                <path d="M274.32,352.35C269.933,349.211 263.843,349.777 260.11,353.67C256.06,358.08 256.257,365.007 260.55,369.18L274.13,382.68C275.011,383.56 276.459,383.56 277.34,382.68L290.84,369.1C295.11,364.905 295.271,357.978 291.2,353.59C287.454,349.716 281.365,349.18 277,352.34C276.203,352.916 275.121,352.92 274.32,352.35Z" style="fill:rgb(222,124,149);fill-rule:nonzero;"/>
            </g>
            <g transform="matrix(1,0,0,1,-78.6963,-112.348)">
                <path d="M275.83,382.15C275.514,382.74 275.514,383.45 275.83,384.04C276.022,384.324 276.199,384.618 276.36,384.92C276.71,385.79 276.1,386.74 275.48,387.45C275.09,387.9 274.66,388.5 274.91,389.05C275.033,389.248 275.188,389.424 275.37,389.57C276.025,390.199 276.395,391.069 276.395,391.978C276.395,393.416 275.466,394.7 274.1,395.15" style="fill:rgb(222,124,149);fill-rule:nonzero;stroke:rgb(245,95,68);stroke-width:1px;"/>
            </g>
            <g transform="matrix(1,0,0,1,-85.9444,-5.29961)">
                <path d="M654.32,71.35C649.933,68.211 643.843,68.777 640.11,72.67C636.06,77.08 636.257,84.007 640.55,88.18L654.13,101.68C655.011,102.56 656.459,102.56 657.34,101.68L670.84,88.1C675.11,83.905 675.271,76.978 671.2,72.59C667.454,68.716 661.365,68.18 657,71.34C656.203,71.916 655.121,71.92 654.32,71.35Z" style="fill:rgb(222,124,149);fill-rule:nonzero;"/>
            </g>
            <g transform="matrix(1,0,0,1,-85.9444,-5.29961)">
                <path d="M655.83,101.15C655.514,101.74 655.514,102.45 655.83,103.04C656.022,103.324 656.199,103.618 656.36,103.92C656.71,104.79 656.1,105.74 655.48,106.45C655.09,106.9 654.66,107.45 654.91,108.05C655.033,108.248 655.188,108.424 655.37,108.57C656.025,109.199 656.395,110.069 656.395,110.978C656.395,112.416 655.466,113.7 654.1,114.15" style="fill:rgb(222,124,149);fill-rule:nonzero;stroke:rgb(245,95,68);stroke-width:1px;"/>
            </g>
            <g transform="matrix(1,0,0,1,115.484,-43.0782)">
                <rect x="206" y="402.18" width="3" height="17" style="fill:rgb(255,190,27);"/>
            </g>
            <g transform="matrix(-3.82857e-16,1,-1,-3.82857e-16,802.924,-34.0782)">
                <rect x="400.18" y="471.44" width="3" height="17" style="fill:rgb(255,190,27);"/>
            </g>
            <g transform="matrix(1,0,0,1,115.484,-43.0782)">
                <rect x="128" y="120.18" width="3" height="17" style="fill:rgb(255,190,27);"/>
            </g>
            <g transform="matrix(-3.82857e-16,1,-1,-3.82857e-16,442.924,-238.078)">
                <rect x="322.18" y="189.44" width="3" height="17" style="fill:rgb(255,190,27);"/>
            </g>
            <g transform="matrix(1,0,0,1,115.484,-43.0782)">
                <rect x="661" y="383.18" width="3" height="17" style="fill:rgb(255,190,27);"/>
            </g>
            <g transform="matrix(-3.82857e-16,1,-1,-3.82857e-16,1238.92,-508.078)">
                <rect x="855.18" y="452.44" width="3" height="17" style="fill:rgb(255,190,27);"/>
            </g>
            <g transform="matrix(1,0,0,1,-78.6963,-112.348)">
                <path d="M742.27,331.06C740.587,330.299 739.725,328.384 740.27,326.62C740.321,326.489 740.348,326.35 740.35,326.21C740.355,326.153 740.358,326.097 740.358,326.04C740.358,325.031 739.527,324.2 738.518,324.2C737.911,324.2 737.343,324.5 737,325C736.922,325.113 736.855,325.234 736.8,325.36C736.039,327.043 734.124,327.905 732.36,327.36C732.227,327.318 732.089,327.291 731.95,327.28C731.911,327.277 731.871,327.276 731.832,327.276C730.822,327.276 729.992,328.107 729.992,329.116C729.992,329.696 730.266,330.243 730.73,330.59C730.842,330.67 730.963,330.737 731.09,330.79C732.776,331.547 733.64,333.466 733.09,335.23C733.049,335.363 733.022,335.501 733.01,335.64C733.007,335.679 733.006,335.719 733.006,335.758C733.006,336.768 733.837,337.598 734.846,337.598C735.426,337.598 735.973,337.324 736.32,336.86C736.402,336.749 736.469,336.628 736.52,336.5C737.267,334.797 739.19,333.911 740.97,334.45C741.1,334.492 741.234,334.519 741.37,334.53C741.409,334.533 741.449,334.534 741.488,334.534C742.498,334.534 743.328,333.703 743.328,332.694C743.328,332.114 743.054,331.567 742.59,331.22C742.49,331.155 742.382,331.101 742.27,331.06Z" style="fill:rgb(77,138,240);fill-opacity:0.5;fill-rule:nonzero;"/>
            </g>
            <g transform="matrix(1,0,0,1,-78.6963,-112.348)">
                <path d="M377.27,293.06C375.587,292.299 374.725,290.384 375.27,288.62C375.321,288.489 375.348,288.35 375.35,288.21C375.355,288.153 375.358,288.097 375.358,288.04C375.358,287.031 374.527,286.2 373.518,286.2C372.911,286.2 372.343,286.5 372,287C371.922,287.113 371.855,287.234 371.8,287.36C371.039,289.043 369.124,289.905 367.36,289.36C367.227,289.318 367.089,289.291 366.95,289.28C366.911,289.277 366.871,289.276 366.832,289.276C365.822,289.276 364.992,290.107 364.992,291.116C364.992,291.696 365.266,292.243 365.73,292.59C365.842,292.67 365.963,292.737 366.09,292.79C367.795,293.529 368.683,295.453 368.14,297.23C368.099,297.363 368.072,297.501 368.06,297.64C368.057,297.679 368.056,297.719 368.056,297.758C368.056,298.768 368.887,299.598 369.896,299.598C370.476,299.598 371.023,299.324 371.37,298.86C371.452,298.749 371.519,298.628 371.57,298.5C372.317,296.797 374.24,295.911 376.02,296.45C376.15,296.492 376.284,296.519 376.42,296.53C376.459,296.533 376.499,296.534 376.538,296.534C377.548,296.534 378.378,295.703 378.378,294.694C378.378,294.114 378.104,293.567 377.64,293.22C377.524,293.151 377.4,293.097 377.27,293.06Z" style="fill:rgb(77,138,240);fill-opacity:0.5;fill-rule:nonzero;"/>
            </g>
            <g transform="matrix(1,0,0,1,-85.9444,-5.29961)">
                <path d="M521.27,98.06C519.587,97.299 518.725,95.384 519.27,93.62C519.321,93.489 519.348,93.35 519.35,93.21C519.355,93.153 519.358,93.097 519.358,93.04C519.358,92.031 518.527,91.2 517.518,91.2C516.911,91.2 516.343,91.5 516,92C515.922,92.113 515.855,92.234 515.8,92.36C515.057,94.062 513.137,94.948 511.36,94.41C511.227,94.368 511.089,94.341 510.95,94.33C510.911,94.327 510.871,94.326 510.832,94.326C509.822,94.326 508.992,95.157 508.992,96.166C508.992,96.746 509.266,97.293 509.73,97.64C509.842,97.72 509.963,97.787 510.09,97.84C511.795,98.579 512.683,100.503 512.14,102.28C512.099,102.413 512.072,102.551 512.06,102.69C512.057,102.729 512.056,102.769 512.056,102.808C512.056,103.818 512.887,104.648 513.896,104.648C514.476,104.648 515.023,104.374 515.37,103.91C515.452,103.799 515.519,103.678 515.57,103.55C516.317,101.847 518.24,100.961 520.02,101.5C520.15,101.542 520.284,101.569 520.42,101.58C520.459,101.583 520.499,101.584 520.538,101.584C521.548,101.584 522.378,100.753 522.378,99.744C522.378,99.164 522.104,98.617 521.64,98.27C521.527,98.184 521.402,98.113 521.27,98.06Z" style="fill:rgb(77,138,240);fill-opacity:0.5;fill-rule:nonzero;"/>
            </g>
        </g>
        <g transform="matrix(1,0,0,1,115.484,-43.0782)">
            <rect x="552" y="141.18" width="3" height="17" style="fill:rgb(71,230,177);"/>
        </g>
        <g transform="matrix(-3.82857e-16,1,-1,-3.82857e-16,887.924,-641.078)">
            <rect x="746.18" y="210.44" width="3" height="17" style="fill:rgb(71,230,177);"/>
        </g>
    </g>
    <g transform="matrix(1.45295,0,0,1.52981,-355.34,-472.708)">
        <path d="M759.66,682.08L711,644.71C711,644.71 707.08,629.15 705.51,618.25C703.94,607.35 701.58,560.65 701.58,560.65C702.698,556.607 703.438,552.47 703.79,548.29C704.27,548.19 704.79,548.07 705.24,547.94C712.613,546.065 718.69,540.826 721.63,533.81C726.63,521.37 720.17,506.67 711.99,496.81C703.81,486.95 693.51,479.03 688.13,466.81C681.49,451.76 683.76,433.55 680.37,417.07C680.046,414.762 679.19,412.561 677.87,410.64C675.76,408.03 672.47,407.47 669.54,406.43C660.26,403.13 653.3,394.12 647.87,384.71C639.08,369.46 629.98,346.26 611.87,344.94C605.14,344.45 598.12,346.72 591.31,346.7C580.76,346.7 570.31,346.83 559.85,348.28C556.11,348.79 552.24,349.49 549.12,351.95C538.41,360.43 543.26,382.82 532.94,391.95C529.87,394.65 525.94,395.63 522.47,397.49C509.39,404.49 503.58,423.16 504.35,439.95C504.72,447.83 506.35,456.02 511,461.77C514.69,466.37 519.93,469.01 523.37,473.87C528.9,481.69 528.15,492.08 527.55,502.64C520.15,505.74 514.21,509.3 512.34,513.13C506,526 506.82,570 506.82,570C506.82,570 509.17,642 491.11,651L423.59,697.7C423.59,697.7 375.69,656.06 363.91,680.58C355.86,697.35 385.26,706.84 404.66,711.16C392.43,719.84 385.66,735.88 391.39,746.74C400.39,763.87 425.55,775.54 425.55,775.54C425.55,775.54 521.5,780.17 565.85,770.23L566.58,770.23C585.41,773.64 612.43,777.23 634.1,775.07C634.52,776.07 634.81,776.71 634.81,776.71C634.81,776.71 773.81,788.39 798.92,740.91C811.8,716.55 798.36,705.31 782.2,700.13C800.29,698.69 820.89,693.63 823.26,678.24C827.58,650.16 759.66,682.08 759.66,682.08ZM745.66,696.97C720.22,706.23 699.58,706.75 688.58,706.06C683.18,694.28 660.66,643.27 660.07,609.12C660.22,601.5 661.57,594.84 664.62,589.84C671.16,579.07 673.1,570.62 672.88,564.21L672.88,562.81C672.912,560.852 672.724,558.896 672.32,556.98C673.396,559.62 673.714,562.509 673.24,565.32C670.89,577.38 677.17,655.61 677.17,655.61C677.17,655.61 682.27,673.13 692.87,678.18L745.66,696.97ZM496.58,691.42L521,675.85C521,675.85 532.39,670.4 533.57,657.17L541.62,593.94C542.164,596.65 542.882,599.322 543.77,601.94C545.19,606.09 545.77,612.17 545.89,619.41C545.58,654.7 533.57,713.25 533.57,713.25L533.71,713.25C533.71,713.42 533.65,713.56 533.63,713.67L532.78,713.72C513.03,713.12 467,711.4 441.24,707.83L496.58,691.42ZM454,728.27L454,728.39L448,728.39L454,728.27Z" style="fill:url(#_Linear1);fill-rule:nonzero;"/>
    </g>
    <g transform="matrix(1.45295,0,0,1.45295,-355.34,-430.92)">
        <path d="M646,391.06C651.24,400.24 658,409.06 667,412.23C669.83,413.23 673,413.8 675,416.35C676.282,418.225 677.114,420.371 677.43,422.62C680.7,438.68 678.51,456.43 684.93,471.12C690.13,483.01 700.08,490.75 707.99,500.34C715.9,509.93 722.1,524.27 717.31,536.39C714.486,543.212 708.609,548.322 701.46,550.17C694.84,551.97 687.93,551.22 681.21,550.03C672.35,548.46 663.33,546.03 655.95,540.03C643.18,529.65 637.78,511.03 631.1,494.46C627.96,486.7 623.79,478.57 616.89,475.8C608.99,472.62 600.1,477.93 594.97,485.72C589.84,493.51 587.57,503.3 585.08,512.72C582.28,523.36 578.74,534.4 571.37,541.36C564.861,547.71 555.179,549.643 546.73,546.28C538.53,542.87 532.05,534.22 530.16,524.19C527.26,508.74 534.22,490.19 525.67,477.97C522.35,473.24 517.28,470.66 513.72,466.18C509.27,460.57 507.65,452.58 507.3,444.91C506.55,428.53 512.16,410.28 524.81,403.5C528.19,401.69 531.96,400.74 534.93,398.1C544.93,389.21 540.21,367.38 550.56,359.1C553.56,356.69 557.32,356.02 560.94,355.51C571.08,354.11 581.15,353.95 591.34,353.98C597.93,353.98 604.72,351.78 611.22,352.26C628.72,353.57 637.51,376.19 646,391.06Z" style="fill:rgb(50,50,50);fill-rule:nonzero;"/>
    </g>
    <g transform="matrix(1.45295,0,0,1.45295,-73.2048,-312.274)">
        <path d="M264.1,652.85L267.93,698.22L535.82,696.62L530.71,647.09L440.14,636.55L281.32,646.14L264.1,652.85Z" style="fill-opacity:0.05;fill-rule:nonzero;"/>
    </g>
    <g transform="matrix(1.45295,0,0,1.45295,-355.34,-412.92)">
        <path d="M634.55,753.82L545.37,762.17C545.37,762.17 606.47,777.73 642.14,770.17L634.55,753.82Z" style="fill:rgb(255,204,194);fill-rule:nonzero;"/>
    </g>
    <g transform="matrix(1.45295,0,0,1.45295,-355.34,-412.92)">
        <path d="M634.55,753.82L545.37,762.17C545.37,762.17 606.47,777.73 642.14,770.17L634.55,753.82Z" style="fill:rgb(255,190,178);fill-opacity:0.1;fill-rule:nonzero;"/>
    </g>
    <g transform="matrix(1.45295,0,0,1.45295,-355.34,-430.92)">
        <path d="M566.62,434.29C566.62,434.29 584.08,480.21 558.27,500.7C532.46,521.19 553.72,578.5 553.72,578.5L653.15,573.94C653.15,573.94 663.01,509.43 657.7,495.77C657.7,495.77 634.17,502.6 628.86,488.18C623.55,473.76 619.75,434.29 619.75,434.29L566.62,434.29Z" style="fill:rgb(255,204,194);fill-rule:nonzero;"/>
    </g>
    <g transform="matrix(1.45295,0,0,1.45295,-355.34,-412.92)">
        <path d="M543.85,712.08C543.85,712.08 459.98,710.18 435.32,704.08C410.66,697.98 389.4,727.26 398.13,744C406.86,760.74 431.13,772.08 431.13,772.08C431.13,772.08 555.99,778.15 582.93,761.08C582.93,761.08 593.18,731.86 582.93,726.17L452.77,726.17L548.77,724.27L543.85,712.08Z" style="fill:rgb(87,89,136);fill-rule:nonzero;"/>
    </g>
    <g transform="matrix(1.45295,0,0,1.45295,-355.34,-412.92)">
        <path d="M677.05,703.35C677.05,703.35 705.14,709.42 743.84,694.24C743.84,694.24 816.33,691.97 792.04,738.24C767.75,784.51 633.41,773.16 633.41,773.16C633.41,773.16 625.41,756.08 633.41,751.53C641.41,746.98 710.83,717.75 732.46,719.27L672.46,731.03L677.05,703.35Z" style="fill:rgb(87,89,136);fill-rule:nonzero;"/>
    </g>
    <g transform="matrix(1.45295,0,0,1.45295,-355.34,-430.92)">
        <path d="M623.19,456.38C621.74,445.57 620.89,436.76 620.89,436.76L567.76,436.76C570.214,443.718 571.917,450.919 572.84,458.24C588.102,468.926 608.758,468.163 623.19,456.38Z" style="fill-opacity:0.1;fill-rule:nonzero;"/>
    </g>
    <g transform="matrix(1.45295,0,0,1.45295,-73.2048,-330.274)">
        <circle cx="401.47" cy="352.31" r="41.74" style="fill:rgb(255,204,194);"/>
    </g>
    <g transform="matrix(1.45295,0,0,1.49278,-355.34,-450.423)">
        <path d="M571.17,494.25C571.17,494.25 521.08,503.74 515.01,516.25C508.94,528.76 509.7,571.66 509.7,571.66C509.7,571.66 511.97,641.86 494.52,650.59L429.24,696.13C429.24,696.13 382.95,655.53 371.56,679.43C360.17,703.33 426.21,712.07 426.21,712.07L499.83,690.07L523.36,674.89C523.36,674.89 534.36,669.58 535.5,656.67L545.37,578.5L584.84,567.11L648.59,567.11L657.13,542.73C657.13,542.73 672.88,555.35 670.6,567.11C668.32,578.87 674.4,655.11 674.4,655.11C674.4,655.11 679.33,672.18 689.58,677.11L748.78,698.36C748.78,698.36 811.39,704.43 815.57,677.11C819.75,649.79 754.09,681 754.09,681L707,644.53C707,644.53 703.21,629.35 701.69,618.72C700.17,608.09 697.9,562.56 697.9,562.56C697.9,562.56 712.32,514.74 670.57,506.4L616.68,489.7L571.17,494.25Z" style="fill:rgb(255,204,194);fill-rule:nonzero;"/>
    </g>
    <g transform="matrix(1.45295,0,0,1.45295,-355.34,-412.92)">
        <path d="M537.59,503.93L545.37,555.35C545.37,555.35 537.37,579.26 545.37,602.79C553.37,626.32 535.5,714 535.5,714C535.5,714 629.24,744 686.5,709.44C686.5,709.44 644.38,620.64 662.21,591.04C680.04,561.44 662.51,549.86 662.51,549.86L665.25,495.41L652.35,491.61L644.76,545.5C644.76,545.5 592.39,581.93 553.68,550.06L545.33,491.61L537.59,503.93Z" style="fill-opacity:0.1;fill-rule:nonzero;"/>
    </g>
    <g transform="matrix(1.45295,0,0,1.45295,-355.34,-430.92)">
        <path d="M591.73,565C583.368,551.646 566.026,546.771 551.93,553.81C564.64,563.36 578.66,565.91 591.73,565Z" style="fill:white;fill-opacity:0.07;fill-rule:nonzero;"/>
    </g>
    <g transform="matrix(1.44141,0,0,1.4608,-349.163,-417.431)">
        <path d="M655.993,602.6C648.392,578.077 550.38,625.781 551.604,634.984C552.445,641.307 559.619,646.075 551.604,670.997C549.901,676.292 545.451,681.094 544.341,685.844C540.6,701.85 536.473,713.11 534.892,711.828C536.365,707.139 628.286,731.543 683.06,704.902C680.411,704.913 674.975,694.302 668.356,677.718C666.844,673.928 660.971,667.987 659.58,663.805C650.788,637.373 662.313,622.986 655.993,602.6Z" style="fill:rgb(255,204,194);fill-rule:nonzero;"/>
    </g>
    <g transform="matrix(1.45295,0,0,1.45295,-73.2048,-312.274)">
        <path d="M264.1,652.85L267.93,698.22L535.82,696.62L530.71,647.09L486.747,635.331L480.079,623.369C438.873,646.071 394.239,649.228 345.348,628.254L342.034,640.741L281.32,646.14L264.1,652.85Z" style="fill:rgb(87,89,136);fill-rule:nonzero;"/>
    </g>
    <g transform="matrix(1.45295,0,0,1.45295,-355.34,-430.92)">
        <path d="M613.24,559.35C621.585,545.998 638.917,541.12 653,548.16C640.32,557.67 626.31,560.21 613.24,559.35Z" style="fill:white;fill-opacity:0.07;fill-rule:nonzero;"/>
    </g>
    <g transform="matrix(1.45295,0,0,1.45295,-355.34,-430.92)">
        <path d="M537.21,503.55L545.37,553.45C545.37,553.45 537.37,577.36 545.37,600.89C553.37,624.42 545.33,652.729 545.33,652.729C545.33,652.729 607.99,681.404 665.25,646.854C665.25,646.854 652.203,618.72 662.21,589.12C673.277,556.385 662.51,547.95 662.51,547.95L665.25,493.49L652.35,489.7L644.76,543.59C644.76,543.59 592.39,580.02 553.68,548.14L545.33,489.7L537.21,503.55Z" style="fill:rgb(111,126,156);fill-rule:nonzero;"/>
    </g>
    <g transform="matrix(1.45295,0,0,1.45295,-355.34,-412.92)">
        <path d="M575.73,730.67L595.46,728C595.46,728 618.23,698.78 634.55,721.17C634.55,721.17 641.38,735.59 649.73,738.24C655.44,739.969 661.278,741.24 667.19,742.04L633.41,751.53C633.41,751.53 618.61,760.26 603.05,757.98C593.891,756.58 584.53,757.361 575.73,760.26L575.73,730.67Z" style="fill:rgb(255,204,194);fill-rule:nonzero;"/>
    </g>
    <g transform="matrix(1.45295,0,0,1.45295,-355.34,-430.92)">
        <path d="M621.46,600.7C621.46,600.7 628.29,607.53 655.61,602.6" style="fill-opacity:0.1;fill-rule:nonzero;"/>
    </g>
    <g transform="matrix(1.45295,0,0,1.45295,-355.34,-430.92)">
        <path d="M552,494.82C552,494.82 578.19,498.62 583.12,496.34" style="fill-opacity:0.1;fill-rule:nonzero;"/>
    </g>
    <g transform="matrix(1.45295,0,0,1.45295,-355.34,-430.92)">
        <path d="M609.69,494.82C609.69,494.82 635.88,498.62 640.81,496.34" style="fill-opacity:0.1;fill-rule:nonzero;"/>
    </g>
    <g transform="matrix(1.45295,0,0,1.45295,-355.34,-412.92)">
        <path d="M578.57,727.83C578.57,727.83 585.79,761.83 578.57,763.03C571.35,764.23 561.12,757.43 561.12,756.67C561.12,755.91 565.67,734.28 565.67,734.28L578.57,727.83Z" style="fill-opacity:0.1;fill-rule:nonzero;"/>
    </g>
    <g transform="matrix(1.45295,0,0,1.45295,-355.34,-412.92)">
        <path d="M577.82,727.83C577.82,727.83 585.03,761.83 577.82,763.03C570.61,764.23 560.36,757.43 560.36,756.67C560.36,755.91 564.91,734.28 564.91,734.28L577.82,727.83Z" style="fill:rgb(87,89,136);fill-rule:nonzero;"/>
    </g>
    <g transform="matrix(1.45295,0,0,1.45295,-355.34,-430.92)">
        <path d="M542.59,489.84C539.4,497.23 538.27,505.95 541.65,513.25C544.23,518.82 549.28,523.33 550.25,529.39C551.47,537 545.83,544.72 547.94,552.13C548.74,554.96 550.61,557.36 552.51,559.61C558.29,566.44 565.97,573.06 574.89,572.53C576.31,558.75 564.39,545.38 568.29,532.09C569.69,527.33 572.97,523.37 574.95,518.83C578.24,511.3 577.77,502.7 576.58,494.57C574.85,482.77 570.47,468.31 558.77,462.79C553.4,460.25 545.77,460.06 543.86,466.96C542.81,470.64 545.26,474.1 545.59,477.7C546,482.27 544.36,485.74 542.59,489.84Z" style="fill-opacity:0.1;fill-rule:nonzero;"/>
    </g>
    <g transform="matrix(1.45295,0,0,1.45295,-355.34,-430.92)">
        <path d="M542.59,488.71C539.4,496.1 538.27,504.81 541.65,512.12C544.23,517.68 549.28,522.2 550.25,528.25C551.47,535.86 545.83,543.58 547.94,550.99C548.74,553.82 550.61,556.23 552.51,558.48C558.29,565.3 565.97,571.92 574.89,571.39C576.31,557.61 564.39,544.24 568.29,530.95C569.69,526.19 572.97,522.23 574.95,517.69C578.24,510.16 577.77,501.56 576.58,493.43C574.85,481.63 570.47,467.17 558.77,461.65C553.4,459.11 545.77,458.93 543.86,465.82C542.81,469.5 545.26,472.96 545.59,476.56C546,481.13 544.36,484.6 542.59,488.71Z" style="fill:rgb(50,50,50);fill-rule:nonzero;"/>
    </g>
    <g transform="matrix(1.45295,0,0,1.45295,-355.34,-430.92)">
        <path d="M545.56,401.09C545.56,401.09 600.96,393.5 602.48,404.88C604,416.26 652.96,434.88 652.96,434.88L640.81,404.88L618.42,367.69C618.42,367.69 577.42,364.69 575.54,367.69C573.66,370.69 552,380.59 552,380.59L545.56,401.09Z" style="fill-opacity:0.1;fill-rule:nonzero;"/>
    </g>
    <g transform="matrix(1.45295,0,0,1.45295,-355.34,-430.92)">
        <path d="M545.56,400.33C545.56,400.33 600.96,392.74 602.48,404.12C604,415.5 652.96,434.12 652.96,434.12L640.81,404.12L618.42,366.93C618.42,366.93 577.42,363.93 575.54,366.93C573.66,369.93 552,379.83 552,379.83L545.56,400.33Z" style="fill:rgb(50,50,50);fill-rule:nonzero;"/>
    </g>
    <g transform="matrix(1.45295,0,0,1.45295,-355.34,-430.92)">
        <path d="M642,481.42C644.694,484.646 646.598,488.458 647.56,492.55C648.48,496.47 648.56,500.55 649.39,504.47C651.25,512.82 656.78,519.84 662.54,526.16C664.41,528.45 666.693,530.37 669.27,531.82C671.91,533.12 675.27,533.39 677.71,531.82C675.39,529.91 674.13,527 673.3,524.12C672.13,520.092 671.61,515.902 671.76,511.71C672.01,504.71 674.06,497.32 671.15,490.94C669.47,487.25 666.34,484.45 663.15,481.94C660.931,480.144 658.539,478.573 656.01,477.25C651.29,474.9 645.89,473.87 640.68,473.35C633.9,472.66 639.83,478.86 642,481.42Z" style="fill-opacity:0.1;fill-rule:nonzero;"/>
    </g>
    <g transform="matrix(1.45295,0,0,1.45295,-355.34,-430.92)">
        <path d="M642,480.29C644.698,483.51 646.602,487.32 647.56,491.41C648.48,495.33 648.56,499.41 649.39,503.33C651.25,511.68 656.78,518.7 662.54,525.02C664.41,527.31 666.693,529.23 669.27,530.68C671.91,531.98 675.27,532.25 677.71,530.68C675.39,528.77 674.13,525.87 673.3,522.98C672.13,518.952 671.61,514.762 671.76,510.57C672.01,503.57 674.06,496.18 671.15,489.8C669.47,486.12 666.34,483.32 663.15,480.8C660.934,478.997 658.542,477.423 656.01,476.1C651.29,473.75 645.89,472.72 640.68,472.2C633.9,471.52 639.83,477.72 642,480.29Z" style="fill:rgb(50,50,50);fill-rule:nonzero;"/>
    </g>
    <g transform="matrix(1.45295,0,0,1.45295,-355.34,-430.92)">
        <path d="M553.91,606.77C553.91,606.77 589.58,612.08 595.65,602.6" style="fill-opacity:0.1;fill-rule:nonzero;"/>
    </g>
    <g transform="matrix(1.67211,0,0,1.67211,-343.232,-485.995)">
        <g>
            <g transform="matrix(0.997552,0,0,0.840887,131.369,379.975)">
                <clipPath id="_clip2">
                    <rect x="362.611" y="289.846" width="28.007" height="40.336"/>
                </clipPath>
                <g clip-path="url(#_clip2)">
                    <g>
                        <g transform="matrix(0.0929581,0,0,0.0977776,315.122,269.544)">
                            <path d="M584.321,467.347C584.487,469.82 585.688,472.145 586.822,474.348C587.962,476.562 589.605,478.616 591.16,480.631C592.906,482.894 594.996,485.733 597.297,487.924C599.833,490.338 603.186,492.986 606.374,495.116C609.562,497.246 612.845,499.339 616.427,500.705C620.098,502.106 625.495,503.05 629.4,503.519C633.191,503.974 637.708,504.244 640.854,503.519C643.648,502.875 645.962,500.864 648.275,499.17C651.165,497.055 655.396,494.118 658.194,490.825C661.038,487.478 663.815,483 665.336,479.087C666.775,475.388 667.321,471.041 667.321,467.347C667.321,463.812 665.847,460.125 664.336,456.928C662.526,453.095 658.86,448.193 655.458,444.352C651.668,440.073 645.288,434.495 641.6,431.256C638.991,428.965 636.03,425.976 633.331,424.92C630.872,423.958 627.923,424.92 625.41,424.92C623.024,424.92 620.61,424.555 618.253,424.92C615.788,425.302 613.01,426.053 610.618,427.21C608.108,428.423 605.413,430.641 603.193,432.201C601.191,433.608 596.866,436.271 597.297,436.572C597.728,436.872 593.867,438.88 592.646,440.177C591.514,441.38 590.752,442.894 589.973,444.352C589.137,445.914 588.252,447.753 587.635,449.549C586.915,451.645 586.117,454.424 585.651,456.928C585.098,459.894 584.126,464.444 584.321,467.347Z" style="fill:rgb(255,220,192);stroke:black;stroke-width:6.82px;stroke-linecap:round;stroke-linejoin:round;stroke-miterlimit:1.5;"/>
                        </g>
                        <g transform="matrix(0.0805977,0,0,0.0927515,323.2,271.9)">
                            <path d="M584.321,467.347C584.487,469.82 585.688,472.145 586.822,474.348C587.962,476.562 589.605,478.616 591.16,480.631C592.906,482.894 594.996,485.733 597.297,487.924C599.833,490.338 603.186,492.986 606.374,495.116C609.562,497.246 612.845,499.339 616.427,500.705C620.098,502.106 625.495,503.05 629.4,503.519C633.191,503.974 637.708,504.244 640.854,503.519C643.648,502.875 645.962,500.864 648.275,499.17C651.165,497.055 655.396,494.118 658.194,490.825C661.038,487.478 663.815,483 665.336,479.087C666.775,475.388 667.321,471.041 667.321,467.347C667.321,463.812 665.847,460.125 664.336,456.928C662.526,453.095 658.86,448.193 655.458,444.352C651.668,440.073 645.288,434.495 641.6,431.256C638.991,428.965 636.03,425.976 633.331,424.92C630.872,423.958 627.923,424.92 625.41,424.92C623.024,424.92 620.61,424.555 618.253,424.92C615.788,425.302 613.01,426.053 610.618,427.21C608.108,428.423 605.413,430.641 603.193,432.201C601.191,433.608 596.866,436.271 597.297,436.572C597.728,436.872 593.867,438.88 592.646,440.177C591.514,441.38 590.752,442.894 589.973,444.352C589.137,445.914 588.252,447.753 587.635,449.549C586.915,451.645 586.117,454.424 585.651,456.928C585.098,459.894 584.126,464.444 584.321,467.347Z" style="fill:rgb(244,230,219);"/>
                        </g>
                        <g transform="matrix(0.0929581,0,0,0.0977776,315.122,269.544)">
                            <path d="M963.943,410.546L953.774,418.595L949.052,424.11L941.497,438.559L939.03,446.37L939.03,457.105L943.182,469.156L950.774,479.134L960.943,483.904L981.731,483.904L992.631,480.813L1004.28,473.694L1015.12,461.255L1018.94,452.105L1020.88,438.343L1016.41,428.609L1011.63,421.757L1002.85,415.602L992.411,410.546L984.731,409.337L974.476,408.478L963.943,410.546Z" style="fill:rgb(255,220,192);stroke:rgb(5,5,5);stroke-width:6.82px;stroke-linecap:round;stroke-linejoin:round;stroke-miterlimit:1.5;"/>
                        </g>
                        <g transform="matrix(0.0826022,0,0,0.0951423,324.967,270.729)">
                            <path d="M963.943,410.546L953.774,418.595L949.052,424.11L941.497,438.559L939.03,446.37L939.03,457.105L943.182,469.156L950.774,479.134L960.943,483.904L981.731,483.904L992.631,480.813L1004.28,473.694L1015.12,461.255L1018.94,452.105L1020.88,438.343L1016.41,428.609L1011.63,421.757L1002.85,415.602L992.411,410.546L984.731,409.337L974.476,408.478L963.943,410.546Z" style="fill:rgb(244,230,219);"/>
                        </g>
                        <g transform="matrix(0.0929581,0,0,0.0977776,353.824,282.129)">
                            <path d="M168.624,346.3C167.098,337.995 169.476,315.091 178.831,309.601C185.109,305.917 190.311,299.267 196.808,297.201C203.306,295.134 214.88,295.957 214.88,295.957C224.24,297.59 224.78,290.109 212.296,287.624C207.552,286.679 203.397,286.105 196.808,283.336C189.273,280.169 179.625,273.634 172.603,268.623C166.199,264.054 159.435,259.537 154.677,253.272C149.513,246.471 143.312,236.17 141.618,227.819C139.973,219.71 141.767,210.219 144.511,203.165C147.203,196.244 153.398,190.009 158.08,185.495C162.234,181.492 167.91,178.205 172.603,176.082C176.865,174.155 181.586,173.271 186.236,172.762C191.289,172.208 197.661,171.885 202.925,172.762C208.118,173.627 214.199,175.9 217.817,178.022C220.725,179.728 222.375,182.992 224.633,185.495C227.882,189.099 234.279,194.083 237.312,199.642C240.475,205.438 241.624,213.361 243.61,220.271C245.761,227.755 247.629,236.57 250.219,244.546C253.12,253.479 256.558,264.454 261.015,273.867C265.795,283.959 272.833,294.877 278.895,305.099C284.902,315.228 290.822,325.426 297.39,335.201C304.009,345.051 312.74,355.511 318.609,364.197C323.651,371.66 329.051,381.165 332.602,387.313C335.2,391.812 338.036,396.234 339.91,401.08C341.821,406.018 343.37,411.553 344.062,416.94C344.754,422.326 344.062,427.913 344.062,433.399L344.062,451.092C344.062,457.476 341.477,466.725 344.062,471.707C346.647,476.69 353.818,479.197 359.57,480.985C366.265,483.065 375.94,484.193 384.23,484.193C393.179,484.193 403.828,483.385 413.265,480.985C423.998,478.254 443.374,474.237 448.629,467.808C453.884,461.38 445.364,450.954 444.795,442.412C444.156,432.82 444.229,420.961 444.795,410.258C445.434,398.174 444.877,382.421 448.629,369.912C452.38,357.402 462.059,347.248 467.302,335.201C474.27,319.194 483.767,294.676 490.434,273.867C497.485,251.861 507.449,220.714 509.608,203.165C511.038,191.538 505.911,176.469 503.384,168.575C501.799,163.624 494.443,156.273 494.443,155.798C494.443,155.323 501.529,165.726 503.384,165.726C505.238,165.726 503.51,158.487 505.572,155.798C508.877,151.488 517.531,143.544 523.216,139.863C528.135,136.679 535.501,135.135 539.683,133.713C542.506,132.753 545.344,131.677 548.305,131.333C551.717,130.936 556.595,130.936 560.151,131.333C563.393,131.695 566.656,132.402 569.643,133.713C572.88,135.135 576.526,137.441 579.576,139.863C582.984,142.569 587.3,146.294 590.09,149.949C592.796,153.495 594.649,157.656 596.315,161.794C598.389,166.947 601.031,174.561 602.535,180.869C604.002,187.023 605.34,193.315 605.34,199.642C605.34,206.209 604.039,213.661 602.535,220.271C601.054,226.777 598.841,233.797 596.315,239.297C594.007,244.322 591.032,249.149 587.376,253.272C583.72,257.394 578.918,261.11 574.38,264.031C569.964,266.875 564.497,269.163 560.151,270.802C556.335,272.242 550.767,272.617 548.305,273.867C546.726,274.669 545.588,276.947 545.379,278.303C545.173,279.64 545.725,281.73 547.05,282.002C548.647,282.329 552.275,280.548 554.959,280.265C557.701,279.975 560.658,280.111 563.501,280.265C566.379,280.42 569.546,280.685 572.225,281.197C574.732,281.676 577.227,282.339 579.576,283.336C582.101,284.407 584.922,285.956 587.376,287.624C590.166,289.519 593.823,291.837 596.315,294.709C598.841,297.622 601.031,302.617 602.535,305.099C603.451,306.611 604.089,308.851 605.34,309.601C606.591,310.351 609.002,310.026 610.041,309.601C610.959,309.225 611.42,308.031 611.574,307.051C611.829,305.419 611.792,302.216 611.574,299.814C611.318,296.997 610.599,293.362 610.041,290.148C609.474,286.89 608.465,283.605 608.176,280.265C607.865,276.678 607.865,271.924 608.176,268.623C608.437,265.845 609.083,263.084 610.041,260.463C611.506,256.45 614.89,249.048 616.969,244.546C618.701,240.793 620.934,237.273 622.511,233.451C624.18,229.405 625.955,224.795 626.982,220.271C628.261,214.636 629.682,206.582 630.185,199.642C630.719,192.277 631.098,183.39 630.185,176.082C629.317,169.133 627.49,162.226 624.709,155.798C621.779,149.023 616.762,141.043 612.602,135.432C608.93,130.48 604.566,125.979 599.748,122.133C594.243,117.739 585.28,112.129 579.576,109.068C575.165,106.701 570.412,104.854 565.525,103.767C560.313,102.609 554.066,102.38 548.305,102.117C542.28,101.842 535.244,101.842 529.374,102.117C523.921,102.372 518.372,102.851 513.081,103.767C507.851,104.674 502.036,106.312 497.629,107.617C493.893,108.723 489.571,110.545 486.638,111.594C484.441,112.38 482.322,113.526 480.033,113.913C477.745,114.299 475.211,114.492 472.908,113.913C469.699,113.105 464.731,110.895 460.779,109.068C454.769,106.291 445.342,99.9 436.85,97.248C427.743,94.404 415.801,92.879 406.133,92.005C397.072,91.186 387.434,91.65 378.839,92.005C370.724,92.341 362.546,92.622 354.566,94.138C345.7,95.824 334.161,99.208 325.64,102.117C318.027,104.717 310.179,108.258 303.444,111.594C297.158,114.707 290.43,118.843 285.229,122.133C280.745,124.969 276.275,128.832 272.239,131.333C268.659,133.552 265.052,135.937 261.015,137.14C256.244,138.562 249.472,139.51 243.61,139.863C236.086,140.317 224.678,139.562 215.87,139.863C207.484,140.15 198.636,140.569 190.762,141.67C183.284,142.715 175.542,144.298 168.624,146.466C161.931,148.564 153.752,152.378 149.251,154.681C146.442,156.118 143.9,158.101 141.618,160.281C138.755,163.015 135.083,167.34 132.071,171.086C128.691,175.288 124.333,180.308 121.34,185.495C118.256,190.842 115.489,197.885 113.566,203.165C111.911,207.709 110.399,212.378 109.802,217.177C109.175,222.224 109.175,228.154 109.802,233.451C110.428,238.733 111.908,243.904 113.566,248.958C115.489,254.82 118.501,262.894 121.34,268.623C123.914,273.816 127.396,278.988 130.605,283.336C133.6,287.395 137.481,290.757 140.589,294.709C143.695,298.66 146.903,303.182 149.251,307.051C151.352,310.512 152.793,314.336 154.677,317.92C156.709,321.786 160.052,326.645 161.44,330.247C162.57,333.177 162.749,337.285 163.01,339.534C163.172,340.929 162.631,342.618 163.01,343.746C163.374,344.827 164.351,345.874 165.287,346.3C166.223,346.726 168.825,347.394 168.624,346.3Z" style="fill:rgb(255,134,117);stroke:black;stroke-width:3.75px;stroke-linecap:round;stroke-linejoin:round;stroke-miterlimit:1.5;"/>
                        </g>
                        <g transform="matrix(0.138888,0,0,0.145678,336.64,270.258)">
                            <ellipse cx="410.038" cy="230.632" rx="7.537" ry="16.365" style="fill:rgb(56,42,42);stroke:black;stroke-width:0.91px;stroke-linecap:round;stroke-linejoin:round;stroke-miterlimit:1.5;"/>
                        </g>
                        <g transform="matrix(0.141067,0,0,0.147963,327.162,270.131)">
                            <ellipse cx="410.038" cy="230.632" rx="7.537" ry="16.365" style="fill:rgb(56,42,42);stroke:black;stroke-width:0.9px;stroke-linecap:round;stroke-linejoin:round;stroke-miterlimit:1.5;"/>
                        </g>
                        <g transform="matrix(0.118506,0,0,0.156079,342.458,267.016)">
                            <ellipse cx="458.638" cy="262.527" rx="4.511" ry="7.781" style="fill:rgb(255,186,248);"/>
                        </g>
                        <g transform="matrix(0.154757,0,0,0.165226,311.423,265.534)">
                            <ellipse cx="458.638" cy="262.527" rx="4.511" ry="7.781" style="fill:rgb(255,186,248);"/>
                        </g>
                        <g transform="matrix(0.0824802,0,0,0.0867565,357.841,287.012)">
                            <path d="M444.795,442.412C446.232,447.323 439.236,460.571 424.79,467.808C395.688,482.39 346.267,485.059 344.062,433.399C343.819,427.713 344.062,445.194 344.062,451.092C344.062,457.476 341.477,466.725 344.062,471.707C346.647,476.69 353.818,479.197 359.57,480.985C366.265,483.065 375.94,484.193 384.23,484.193C393.179,484.193 403.828,483.385 413.265,480.985C423.998,478.254 444.357,474.928 448.629,467.808C452.427,461.478 443.109,442.525 444.795,442.412Z" style="fill:rgb(236,139,139);"/>
                        </g>
                    </g>
                    <g transform="matrix(0.154503,0,0,0.163246,331.067,268.169)">
                        <ellipse cx="404.034" cy="222.522" rx="2.349" ry="4.186" style="fill:rgb(235,235,235);stroke:black;stroke-width:0.82px;stroke-linecap:round;stroke-linejoin:round;stroke-miterlimit:1.5;"/>
                    </g>
                    <g transform="matrix(0.156926,0,0,0.165807,321.587,267.905)">
                        <ellipse cx="404.034" cy="222.522" rx="2.349" ry="4.186" style="fill:rgb(235,235,235);stroke:black;stroke-width:0.81px;stroke-linecap:round;stroke-linejoin:round;stroke-miterlimit:1.5;"/>
                    </g>
                </g>
            </g>
            <g transform="matrix(-0.998893,0,0,0.840887,909.573,379.969)">
                <clipPath id="_clip3">
                    <rect x="363.067" y="290.065" width="27.55" height="40.223"/>
                </clipPath>
                <g clip-path="url(#_clip3)">
                    <g>
                        <g transform="matrix(0.0929581,0,0,0.0977776,315.122,269.544)">
                            <path d="M584.321,467.347C584.487,469.82 585.688,472.145 586.822,474.348C587.962,476.562 589.605,478.616 591.16,480.631C592.906,482.894 594.996,485.733 597.297,487.924C599.833,490.338 603.186,492.986 606.374,495.116C609.562,497.246 612.845,499.339 616.427,500.705C620.098,502.106 625.495,503.05 629.4,503.519C633.191,503.974 637.708,504.244 640.854,503.519C643.648,502.875 645.962,500.864 648.275,499.17C651.165,497.055 655.396,494.118 658.194,490.825C661.038,487.478 663.815,483 665.336,479.087C666.775,475.388 667.321,471.041 667.321,467.347C667.321,463.812 665.847,460.125 664.336,456.928C662.526,453.095 658.86,448.193 655.458,444.352C651.668,440.073 645.288,434.495 641.6,431.256C638.991,428.965 636.03,425.976 633.331,424.92C630.872,423.958 627.923,424.92 625.41,424.92C623.024,424.92 620.61,424.555 618.253,424.92C615.788,425.302 613.01,426.053 610.618,427.21C608.108,428.423 605.413,430.641 603.193,432.201C601.191,433.608 596.866,436.271 597.297,436.572C597.728,436.872 593.867,438.88 592.646,440.177C591.514,441.38 590.752,442.894 589.973,444.352C589.137,445.914 588.252,447.753 587.635,449.549C586.915,451.645 586.117,454.424 585.651,456.928C585.098,459.894 584.126,464.444 584.321,467.347Z" style="fill:rgb(255,220,192);stroke:black;stroke-width:6.82px;stroke-linecap:round;stroke-linejoin:round;stroke-miterlimit:1.5;"/>
                        </g>
                        <g transform="matrix(0.0805977,0,0,0.0927515,323.2,271.9)">
                            <path d="M584.321,467.347C584.487,469.82 585.688,472.145 586.822,474.348C587.962,476.562 589.605,478.616 591.16,480.631C592.906,482.894 594.996,485.733 597.297,487.924C599.833,490.338 603.186,492.986 606.374,495.116C609.562,497.246 612.845,499.339 616.427,500.705C620.098,502.106 625.495,503.05 629.4,503.519C633.191,503.974 637.708,504.244 640.854,503.519C643.648,502.875 645.962,500.864 648.275,499.17C651.165,497.055 655.396,494.118 658.194,490.825C661.038,487.478 663.815,483 665.336,479.087C666.775,475.388 667.321,471.041 667.321,467.347C667.321,463.812 665.847,460.125 664.336,456.928C662.526,453.095 658.86,448.193 655.458,444.352C651.668,440.073 645.288,434.495 641.6,431.256C638.991,428.965 636.03,425.976 633.331,424.92C630.872,423.958 627.923,424.92 625.41,424.92C623.024,424.92 620.61,424.555 618.253,424.92C615.788,425.302 613.01,426.053 610.618,427.21C608.108,428.423 605.413,430.641 603.193,432.201C601.191,433.608 596.866,436.271 597.297,436.572C597.728,436.872 593.867,438.88 592.646,440.177C591.514,441.38 590.752,442.894 589.973,444.352C589.137,445.914 588.252,447.753 587.635,449.549C586.915,451.645 586.117,454.424 585.651,456.928C585.098,459.894 584.126,464.444 584.321,467.347Z" style="fill:rgb(244,230,219);"/>
                        </g>
                        <g transform="matrix(0.0929581,0,0,0.0977776,315.122,269.544)">
                            <path d="M963.943,410.546L953.774,418.595L949.052,424.11L941.497,438.559L939.03,446.37L939.03,457.105L943.182,469.156L950.774,479.134L960.943,483.904L981.731,483.904L992.631,480.813L1004.28,473.694L1015.12,461.255L1018.94,452.105L1020.88,438.343L1016.41,428.609L1011.63,421.757L1002.85,415.602L992.411,410.546L984.731,409.337L974.476,408.478L963.943,410.546Z" style="fill:rgb(255,220,192);stroke:rgb(5,5,5);stroke-width:6.82px;stroke-linecap:round;stroke-linejoin:round;stroke-miterlimit:1.5;"/>
                        </g>
                        <g transform="matrix(0.0826022,0,0,0.0951423,324.967,270.729)">
                            <path d="M963.943,410.546L953.774,418.595L949.052,424.11L941.497,438.559L939.03,446.37L939.03,457.105L943.182,469.156L950.774,479.134L960.943,483.904L981.731,483.904L992.631,480.813L1004.28,473.694L1015.12,461.255L1018.94,452.105L1020.88,438.343L1016.41,428.609L1011.63,421.757L1002.85,415.602L992.411,410.546L984.731,409.337L974.476,408.478L963.943,410.546Z" style="fill:rgb(244,230,219);"/>
                        </g>
                        <g transform="matrix(0.0929581,0,0,0.0977776,353.824,282.129)">
                            <path d="M168.624,346.3C167.098,337.995 169.476,315.091 178.831,309.601C185.109,305.917 190.311,299.267 196.808,297.201C203.306,295.134 214.88,295.957 214.88,295.957C224.24,297.59 224.78,290.109 212.296,287.624C207.552,286.679 203.397,286.105 196.808,283.336C189.273,280.169 179.625,273.634 172.603,268.623C166.199,264.054 159.435,259.537 154.677,253.272C149.513,246.471 143.312,236.17 141.618,227.819C139.973,219.71 141.767,210.219 144.511,203.165C147.203,196.244 153.398,190.009 158.08,185.495C162.234,181.492 167.91,178.205 172.603,176.082C176.865,174.155 181.586,173.271 186.236,172.762C191.289,172.208 197.661,171.885 202.925,172.762C208.118,173.627 214.199,175.9 217.817,178.022C220.725,179.728 222.375,182.992 224.633,185.495C227.882,189.099 234.279,194.083 237.312,199.642C240.475,205.438 241.624,213.361 243.61,220.271C245.761,227.755 247.629,236.57 250.219,244.546C253.12,253.479 256.558,264.454 261.015,273.867C265.795,283.959 272.833,294.877 278.895,305.099C284.902,315.228 290.822,325.426 297.39,335.201C304.009,345.051 312.74,355.511 318.609,364.197C323.651,371.66 329.051,381.165 332.602,387.313C335.2,391.812 338.036,396.234 339.91,401.08C341.821,406.018 343.37,411.553 344.062,416.94C344.754,422.326 344.062,427.913 344.062,433.399L344.062,451.092C344.062,457.476 341.477,466.725 344.062,471.707C346.647,476.69 353.818,479.197 359.57,480.985C366.265,483.065 375.94,484.193 384.23,484.193C393.179,484.193 403.828,483.385 413.265,480.985C423.998,478.254 443.374,474.237 448.629,467.808C453.884,461.38 445.364,450.954 444.795,442.412C444.156,432.82 444.229,420.961 444.795,410.258C445.434,398.174 444.877,382.421 448.629,369.912C452.38,357.402 462.059,347.248 467.302,335.201C474.27,319.194 483.767,294.676 490.434,273.867C497.485,251.861 507.449,220.714 509.608,203.165C511.038,191.538 505.911,176.469 503.384,168.575C501.799,163.624 494.443,156.273 494.443,155.798C494.443,155.323 501.529,165.726 503.384,165.726C505.238,165.726 503.51,158.487 505.572,155.798C508.877,151.488 517.531,143.544 523.216,139.863C528.135,136.679 535.501,135.135 539.683,133.713C542.506,132.753 545.344,131.677 548.305,131.333C551.717,130.936 556.595,130.936 560.151,131.333C563.393,131.695 566.656,132.402 569.643,133.713C572.88,135.135 576.526,137.441 579.576,139.863C582.984,142.569 587.3,146.294 590.09,149.949C592.796,153.495 594.649,157.656 596.315,161.794C598.389,166.947 601.031,174.561 602.535,180.869C604.002,187.023 605.34,193.315 605.34,199.642C605.34,206.209 604.039,213.661 602.535,220.271C601.054,226.777 598.841,233.797 596.315,239.297C594.007,244.322 591.032,249.149 587.376,253.272C583.72,257.394 578.918,261.11 574.38,264.031C569.964,266.875 564.497,269.163 560.151,270.802C556.335,272.242 550.767,272.617 548.305,273.867C546.726,274.669 545.588,276.947 545.379,278.303C545.173,279.64 545.725,281.73 547.05,282.002C548.647,282.329 552.275,280.548 554.959,280.265C557.701,279.975 560.658,280.111 563.501,280.265C566.379,280.42 569.546,280.685 572.225,281.197C574.732,281.676 577.227,282.339 579.576,283.336C582.101,284.407 584.922,285.956 587.376,287.624C590.166,289.519 593.823,291.837 596.315,294.709C598.841,297.622 601.031,302.617 602.535,305.099C603.451,306.611 604.089,308.851 605.34,309.601C606.591,310.351 609.002,310.026 610.041,309.601C610.959,309.225 611.42,308.031 611.574,307.051C611.829,305.419 611.792,302.216 611.574,299.814C611.318,296.997 610.599,293.362 610.041,290.148C609.474,286.89 608.465,283.605 608.176,280.265C607.865,276.678 607.865,271.924 608.176,268.623C608.437,265.845 609.083,263.084 610.041,260.463C611.506,256.45 614.89,249.048 616.969,244.546C618.701,240.793 620.934,237.273 622.511,233.451C624.18,229.405 625.955,224.795 626.982,220.271C628.261,214.636 629.682,206.582 630.185,199.642C630.719,192.277 631.098,183.39 630.185,176.082C629.317,169.133 627.49,162.226 624.709,155.798C621.779,149.023 616.762,141.043 612.602,135.432C608.93,130.48 604.566,125.979 599.748,122.133C594.243,117.739 585.28,112.129 579.576,109.068C575.165,106.701 570.412,104.854 565.525,103.767C560.313,102.609 554.066,102.38 548.305,102.117C542.28,101.842 535.244,101.842 529.374,102.117C523.921,102.372 518.372,102.851 513.081,103.767C507.851,104.674 502.036,106.312 497.629,107.617C493.893,108.723 489.571,110.545 486.638,111.594C484.441,112.38 482.322,113.526 480.033,113.913C477.745,114.299 475.211,114.492 472.908,113.913C469.699,113.105 464.731,110.895 460.779,109.068C454.769,106.291 445.342,99.9 436.85,97.248C427.743,94.404 415.801,92.879 406.133,92.005C397.072,91.186 387.434,91.65 378.839,92.005C370.724,92.341 362.546,92.622 354.566,94.138C345.7,95.824 334.161,99.208 325.64,102.117C318.027,104.717 310.179,108.258 303.444,111.594C297.158,114.707 290.43,118.843 285.229,122.133C280.745,124.969 276.275,128.832 272.239,131.333C268.659,133.552 265.052,135.937 261.015,137.14C256.244,138.562 249.472,139.51 243.61,139.863C236.086,140.317 224.678,139.562 215.87,139.863C207.484,140.15 198.636,140.569 190.762,141.67C183.284,142.715 175.542,144.298 168.624,146.466C161.931,148.564 153.752,152.378 149.251,154.681C146.442,156.118 143.9,158.101 141.618,160.281C138.755,163.015 135.083,167.34 132.071,171.086C128.691,175.288 124.333,180.308 121.34,185.495C118.256,190.842 115.489,197.885 113.566,203.165C111.911,207.709 110.399,212.378 109.802,217.177C109.175,222.224 109.175,228.154 109.802,233.451C110.428,238.733 111.908,243.904 113.566,248.958C115.489,254.82 118.501,262.894 121.34,268.623C123.914,273.816 127.396,278.988 130.605,283.336C133.6,287.395 137.481,290.757 140.589,294.709C143.695,298.66 146.903,303.182 149.251,307.051C151.352,310.512 152.793,314.336 154.677,317.92C156.709,321.786 160.052,326.645 161.44,330.247C162.57,333.177 162.749,337.285 163.01,339.534C163.172,340.929 162.631,342.618 163.01,343.746C163.374,344.827 164.351,345.874 165.287,346.3C166.223,346.726 168.825,347.394 168.624,346.3Z" style="fill:rgb(255,134,117);stroke:black;stroke-width:3.75px;stroke-linecap:round;stroke-linejoin:round;stroke-miterlimit:1.5;"/>
                        </g>
                        <g transform="matrix(0.138888,0,0,0.145678,336.64,270.258)">
                            <ellipse cx="410.038" cy="230.632" rx="7.537" ry="16.365" style="fill:rgb(56,42,42);stroke:black;stroke-width:0.91px;stroke-linecap:round;stroke-linejoin:round;stroke-miterlimit:1.5;"/>
                        </g>
                        <g transform="matrix(0.141067,0,0,0.147963,327.162,270.131)">
                            <ellipse cx="410.038" cy="230.632" rx="7.537" ry="16.365" style="fill:rgb(56,42,42);stroke:black;stroke-width:0.9px;stroke-linecap:round;stroke-linejoin:round;stroke-miterlimit:1.5;"/>
                        </g>
                        <g transform="matrix(0.118506,0,0,0.156079,342.458,267.016)">
                            <ellipse cx="458.638" cy="262.527" rx="4.511" ry="7.781" style="fill:rgb(255,186,248);"/>
                        </g>
                        <g transform="matrix(0.154757,0,0,0.165226,311.423,265.534)">
                            <ellipse cx="458.638" cy="262.527" rx="4.511" ry="7.781" style="fill:rgb(255,186,248);"/>
                        </g>
                        <g transform="matrix(0.0824802,0,0,0.0867565,357.841,287.012)">
                            <path d="M444.795,442.412C446.232,447.323 439.236,460.571 424.79,467.808C395.688,482.39 346.267,485.059 344.062,433.399C343.819,427.713 344.062,445.194 344.062,451.092C344.062,457.476 341.477,466.725 344.062,471.707C346.647,476.69 353.818,479.197 359.57,480.985C366.265,483.065 375.94,484.193 384.23,484.193C393.179,484.193 403.828,483.385 413.265,480.985C423.998,478.254 444.357,474.928 448.629,467.808C452.427,461.478 443.109,442.525 444.795,442.412Z" style="fill:rgb(236,139,139);"/>
                        </g>
                    </g>
                    <g transform="matrix(0.154503,0,0,0.163246,331.067,268.169)">
                        <ellipse cx="404.034" cy="222.522" rx="2.349" ry="4.186" style="fill:rgb(235,235,235);stroke:black;stroke-width:0.82px;stroke-linecap:round;stroke-linejoin:round;stroke-miterlimit:1.5;"/>
                    </g>
                    <g transform="matrix(0.156926,0,0,0.165807,321.587,267.905)">
                        <ellipse cx="404.034" cy="222.522" rx="2.349" ry="4.186" style="fill:rgb(235,235,235);stroke:black;stroke-width:0.81px;stroke-linecap:round;stroke-linejoin:round;stroke-miterlimit:1.5;"/>
                    </g>
                </g>
            </g>
        </g>
        <g transform="matrix(-0.0698399,0,0,0.125944,584.543,610.126)">
            <path d="M928.482,279.35C949.007,279.168 958.008,241.244 952.268,241.119C944.015,254.474 907.566,253.518 900.107,241.119C897.848,244.107 900.978,279.593 928.482,279.35Z" style="fill:rgb(68,37,37);stroke:black;stroke-width:1.47px;stroke-linecap:round;stroke-linejoin:round;stroke-miterlimit:1.5;"/>
        </g>
    </g>
    <defs>
        <linearGradient id="_Linear1" x1="0" y1="0" x2="1" y2="0" gradientUnits="userSpaceOnUse" gradientTransform="matrix(2.65136e-14,-433,433,2.65136e-14,593,777.92)"><stop offset="0" style="stop-color:rgb(128,128,128);stop-opacity:0.25"/><stop offset="0.54" style="stop-color:rgb(128,128,128);stop-opacity:0.12"/><stop offset="1" style="stop-color:rgb(128,128,128);stop-opacity:0.1"/></linearGradient>
    </defs>
</svg>
