<?xml version="1.0" encoding="UTF-8" standalone="no"?>
<!DOCTYPE svg PUBLIC "-//W3C//DTD SVG 1.1//EN" "http://www.w3.org/Graphics/SVG/1.1/DTD/svg11.dtd">
<svg width="100%" height="100%" viewBox="0 0 1075 841" version="1.1" xmlns="http://www.w3.org/2000/svg" xmlns:xlink="http://www.w3.org/1999/xlink" xml:space="preserve" xmlns:serif="http://www.serif.com/" style="fill-rule:evenodd;clip-rule:evenodd;stroke-linejoin:round;stroke-miterlimit:2;">
    <g transform="matrix(0.971917,0,0,0.971917,-26.7848,-10.8476)">
        <path d="M912.313,481.182C912.287,607.7 834.904,722.086 717.479,769.183C706.984,773.402 696.261,777.031 685.361,780.054C630.939,795.106 573.439,795.113 519.014,780.075C511.572,778.011 504.246,775.679 497.037,773.078C480.642,767.181 464.78,759.896 449.623,751.303C355.504,698.066 291.977,597.045 291.977,481.182C291.883,316.429 423.148,178.91 587.727,171.343C592.512,171.12 597.318,171.011 602.145,171.014C607.449,171.014 612.724,171.145 617.971,171.406C781.957,179.763 912.34,316.983 912.313,481.182Z" style="fill:rgb(245,187,200);fill-rule:nonzero;"/>
    </g>
    <g transform="matrix(0.971917,0,0,0.971917,-26.7848,-10.8476)">
        <path d="M595.793,790.291C565.879,790.31 536.1,786.272 507.272,778.286C499.292,776.072 491.418,773.565 483.869,770.834C466.412,764.55 449.522,756.793 433.38,747.646C329.839,689.082 265.61,578.961 265.61,460.006C265.61,334.339 337.292,219.11 450.019,163.569C490.698,143.481 535.116,132.075 580.442,130.079C590.667,129.602 601.497,129.606 612.643,130.146C787.239,139.129 926.02,285.235 926.02,460.062C926.02,594.763 843.633,716.558 718.607,766.687C707.429,771.176 696.01,775.041 684.404,778.264C655.547,786.263 625.738,790.309 595.793,790.291ZM595.793,131.847C590.625,131.847 585.493,131.963 580.539,132.194C535.505,134.177 491.372,145.509 450.954,165.469C338.942,220.647 267.712,335.139 267.712,460.005C267.712,598.036 354.754,721.985 484.588,768.842C492.088,771.557 499.91,774.047 507.838,776.245C565.422,792.156 626.258,792.149 683.839,776.223C695.369,773.022 706.713,769.182 717.818,764.721C842.075,714.936 923.964,593.908 923.964,460.049C923.964,286.324 786.036,141.149 612.539,132.261C606.862,131.986 601.228,131.847 595.793,131.847Z" style="fill:rgb(63,61,86);fill-rule:nonzero;"/>
    </g>
    <g transform="matrix(0.971917,0,0,0.971917,119.971,22.6408)">
        <circle cx="362.457" cy="154.579" r="99.092" style="fill:rgb(47,46,65);"/>
    </g>
    <g transform="matrix(0.971917,0,0,0.971917,119.971,22.6408)">
        <circle cx="383.089" cy="182.172" r="70.206" style="fill:rgb(207,155,162);"/>
    </g>
    <g transform="matrix(0.971917,0,0,0.971917,-26.7848,-10.8476)">
        <path d="M478.18,232.229C478.18,232.229 467.779,315.436 430.076,332.338C392.373,349.239 534.085,340.138 534.085,340.138C534.085,340.138 534.085,264.732 539.285,262.132C544.486,259.532 478.18,232.229 478.18,232.229Z" style="fill:rgb(207,155,162);fill-rule:nonzero;"/>
    </g>
    <g transform="matrix(0.971917,0,0,0.971917,-26.7848,-10.8476)">
        <path d="M462.579,782.176L457.378,809.478C457.378,809.478 384.572,852.382 419.675,864.083C454.778,875.784 497.682,813.378 497.682,813.378L489.881,782.176L462.579,782.176Z" style="fill:rgb(207,155,162);fill-rule:nonzero;"/>
    </g>
    <g transform="matrix(0.971917,0,0,0.971917,-26.7848,-10.8476)">
        <path d="M513.283,576.758L570.488,637.863L727.801,528.654C727.801,528.654 691.398,500.052 679.697,500.052C667.996,500.052 513.283,576.758 513.283,576.758Z" style="fill:rgb(207,155,162);fill-rule:nonzero;"/>
    </g>
    <g transform="matrix(0.971917,0,0,0.971917,-26.7848,-10.8476)">
        <path d="M822.709,255.631C822.709,255.631 839.611,137.321 869.513,146.422C899.416,155.523 852.612,272.533 852.612,272.533L822.709,255.631Z" style="fill:rgb(207,155,162);fill-rule:nonzero;"/>
    </g>
    <g transform="matrix(0.971917,0,0,0.971917,-26.7848,-10.8476)">
        <path d="M612.091,318.036C612.091,318.036 555.361,308.936 534.322,318.036C513.283,327.137 449.731,334.378 441.854,324.257C433.976,314.136 363.77,347.939 363.77,362.24C363.77,376.541 515.883,592.36 515.883,592.36C515.883,592.36 673.197,548.156 693.998,501.352C693.998,501.352 675.797,488.351 675.797,477.95C675.797,467.549 666.696,457.148 666.696,457.148C666.696,457.148 677.097,431.146 658.895,407.744C640.694,384.342 612.091,318.036 612.091,318.036Z" style="fill:rgb(238,235,255);fill-rule:nonzero;"/>
    </g>
    <g transform="matrix(0.971917,0,0,0.971917,-26.7848,-10.8476)">
        <path d="M595.19,321.937L612.091,318.036C612.091,318.036 653.695,328.437 682.297,363.54C710.9,398.643 760.304,410.344 760.304,410.344L820.109,247.831L869.513,264.732C869.513,264.732 830.51,471.449 786.306,474.05C742.102,476.65 632.893,428.546 632.893,428.546L595.19,321.937Z" style="fill:rgb(238,235,255);fill-rule:nonzero;"/>
    </g>
    <g transform="matrix(0.971917,0,0,0.971917,-26.7848,-10.8476)">
        <path d="M384.572,349.239C384.572,349.239 357.27,350.539 357.27,373.941C357.27,397.343 361.17,477.95 384.572,513.053C407.974,548.156 428.776,627.463 430.076,628.763C431.376,630.063 456.078,793.877 456.078,793.877L497.682,789.976L489.881,585.859L449.578,481.85L384.572,349.239Z" style="fill:rgb(238,235,255);fill-rule:nonzero;"/>
    </g>
    <g transform="matrix(0.971917,0,0,0.971917,-26.7848,-10.8476)">
        <path d="M843.779,675.656C810.388,717.133 766.892,749.342 717.479,769.183L710.905,754.87L685.361,780.054C630.939,795.106 573.439,795.113 519.014,780.075L508.079,773.078L566.587,705.466C566.587,705.466 567.889,671.665 566.587,666.467C565.285,661.27 548.22,614.078 548.22,614.078C607.512,610.32 692.295,535.107 711.932,516.973C714.631,514.475 716.102,513.056 716.102,513.056C825.307,528.649 840.91,656.061 840.91,656.061L843.779,675.656Z" style="fill:rgb(47,46,65);fill-rule:nonzero;"/>
    </g>
    <g transform="matrix(0.971917,0,0,0.971917,119.971,22.6408)">
        <ellipse cx="312.474" cy="184.724" rx="6.352" ry="13.232" style="fill:rgb(207,155,162);"/>
    </g>
    <g transform="matrix(0.971917,0,0,0.971917,119.971,22.6408)">
        <circle cx="272.247" cy="60.34" r="41.285" style="fill:rgb(47,46,65);"/>
    </g>
    <g transform="matrix(0.971917,0,0,0.971917,-26.7848,-10.8476)">
        <path d="M379.841,75.741C379.844,54.887 395.647,37.144 416.362,34.738C414.763,34.55 413.154,34.456 411.544,34.456C388.895,34.456 370.259,53.093 370.259,75.741C370.259,98.389 388.895,117.026 411.544,117.026C413.154,117.026 414.763,116.932 416.362,116.744C395.647,114.338 379.844,96.595 379.841,75.741Z" style="fill:rgb(47,46,65);fill-rule:nonzero;"/>
    </g>
    <g transform="matrix(1.62271,-0.652925,0.652925,1.62271,-347.004,-273.856)">
        <g transform="matrix(1,0,0,1,-100.859,-63.6134)">
            <path d="M632.934,484.223C631.985,482.199 631.237,480.767 630.975,480.274C614.884,484.244 604.149,480.889 602.456,480.296C601.628,481.859 596.46,491.853 594.371,501.434C592.484,510.076 593.579,515.87 597.627,518.654L597.746,518.74L597.773,518.757C602.24,521.701 606.502,524.308 610.439,526.506C610.969,526.801 611.469,527.075 611.939,527.329L611.989,527.356L612.025,527.401C612.565,528.082 613.068,528.791 613.531,529.527C614.401,530.743 614.929,532.171 615.06,533.66L615.06,576.584L614.789,576.59C604.525,576.799 598.173,578.539 598.173,580.031C598.173,581.667 605.79,583.491 616.721,583.491C627.652,583.491 635.269,581.667 635.269,580.031C635.269,578.561 629.024,576.831 618.935,576.598L618.663,576.591L618.916,536.886C618.922,534.198 619.547,531.547 620.743,529.139C620.947,528.734 621.165,528.341 621.394,527.97C621.577,527.671 621.771,527.38 621.97,527.105L622.007,527.055L622.061,527.025C622.567,526.749 623.104,526.45 623.671,526.128L623.738,526.091C627.464,523.987 631.478,521.52 635.671,518.756C639.414,516.289 640.717,511.301 639.544,503.932C638.427,496.906 635.333,489.336 632.934,484.223Z" style="fill:rgb(201,200,209);fill-rule:nonzero;"/>
        </g>
        <g transform="matrix(0.915797,0.296219,-0.307756,0.951465,106.051,-221.4)">
            <path d="M636.825,513.406C634.445,517.847 628.414,522.813 625.541,523.874C625.54,523.874 625.539,523.874 625.538,523.874C623.775,524.742 617.425,524.602 613.396,524.215C609.738,523.864 604.182,522.503 600.537,519.813C596.858,517.098 594.289,509.272 596.383,502.021C599.967,501.623 605.682,501.797 613.361,504.54C622.453,507.788 633.328,502.943 638.844,501.273C639.75,506.965 639.057,509.241 636.825,513.406Z" style="fill:rgb(228,110,133);fill-rule:nonzero;"/>
        </g>
        <g transform="matrix(1,0,0,1,2.71418,-2.94242)">
            <circle cx="506.902" cy="434.829" r="1.245" style="fill:rgb(228,110,133);"/>
        </g>
        <circle cx="503.417" cy="446.278" r="1.245" style="fill:white;"/>
        <g transform="matrix(1,0,0,1,2.71418,-2.94242)">
            <circle cx="509.888" cy="437.815" r="0.747" style="fill:rgb(228,110,133);"/>
        </g>
        <circle cx="512.875" cy="452.003" r="0.747" style="fill:white;"/>
        <circle cx="507.648" cy="452.75" r="0.747" style="fill:white;"/>
        <circle cx="522.831" cy="427.859" r="0.747" style="fill:rgb(228,110,133);"/>
    </g>
    <g transform="matrix(0.971917,0,0,0.971917,-26.7848,-10.8476)">
        <path d="M449.708,156.194C449.708,156.194 468.762,196.421 492.051,197.479C515.34,198.538 602.145,181.6 602.145,181.6L573.563,122.319L497.344,131.847L449.708,156.194Z" style="fill:rgb(47,46,65);fill-rule:nonzero;"/>
    </g>
</svg>
