<?xml version="1.0" encoding="UTF-8" standalone="no"?>
<!DOCTYPE svg PUBLIC "-//W3C//DTD SVG 1.1//EN" "http://www.w3.org/Graphics/SVG/1.1/DTD/svg11.dtd">
<svg width="100%" height="100%" viewBox="0 0 1075 841" version="1.1" xmlns="http://www.w3.org/2000/svg" xmlns:xlink="http://www.w3.org/1999/xlink" xml:space="preserve" xmlns:serif="http://www.serif.com/" style="fill-rule:evenodd;clip-rule:evenodd;stroke-linejoin:round;stroke-miterlimit:2;">
    <g id="Postieľka">
        <path d="M733.95,360.24L738.78,616.96L749.05,618.17L745.18,359.22L733.95,360.24Z" style="fill:rgb(245,197,204);fill-rule:nonzero;"/>
        <path d="M739.87,355.45L745.38,622.64L749.05,618.17L745.18,359.22L739.87,355.45Z" style="fill:none;fill-rule:nonzero;"/>
        <path d="M709.12,355.41L713.95,612.13L724.22,613.34L720.35,354.39L709.12,355.41Z" style="fill:rgb(245,197,204);fill-rule:nonzero;"/>
        <path d="M715.04,350.62L720.54,617.81L724.22,613.34L720.35,354.39L715.04,350.62Z" style="fill:none;fill-rule:nonzero;"/>
        <path d="M715.19,341.99L715.69,621.99L726.19,620.99L722.19,336.49L715.19,341.99Z" style="fill:rgb(204,146,155);fill-rule:nonzero;"/>
        <path d="M425.56,295.24L429.99,527.95L440.26,529.03L436.8,294.3L425.56,295.24Z" style="fill:rgb(245,197,204);fill-rule:nonzero;"/>
        <path d="M431.49,290.89L436.57,533.09L440.26,529.03L436.8,294.3L431.49,290.89Z" style="fill:rgb(204,146,155);fill-rule:nonzero;"/>
        <path d="M447.41,301.13L451.84,533.83L462.11,534.91L458.65,300.19L447.41,301.13Z" style="fill:rgb(245,197,204);fill-rule:nonzero;"/>
        <path d="M453.34,296.77L458.43,538.97L462.11,534.91L458.65,300.19L453.34,296.77Z" style="fill:rgb(204,146,155);fill-rule:nonzero;"/>
        <path d="M468.77,307.51L473.2,540.22L483.47,541.3L480.01,306.58L468.77,307.51Z" style="fill:rgb(245,197,204);fill-rule:nonzero;"/>
        <path d="M474.7,303.17L479.79,545.36L483.47,541.3L480.01,306.58L474.7,303.17Z" style="fill:rgb(204,146,155);fill-rule:nonzero;"/>
        <path d="M489.55,308.81L494.11,549.69L504.38,550.81L500.78,307.85L489.55,308.81Z" style="fill:rgb(245,197,204);fill-rule:nonzero;"/>
        <path d="M495.47,304.31L500.7,555.01L504.38,550.81L500.78,307.85L495.47,304.31Z" style="fill:rgb(204,146,155);fill-rule:nonzero;"/>
        <path d="M512.08,310.69L516.65,551.56L526.92,552.68L523.32,309.72L512.08,310.69Z" style="fill:rgb(245,197,204);fill-rule:nonzero;"/>
        <path d="M518.01,306.19L523.24,556.88L526.92,552.68L523.32,309.72L518.01,306.19Z" style="fill:rgb(204,146,155);fill-rule:nonzero;"/>
        <path d="M534.22,318.56L538.78,559.44L549.05,560.56L545.46,317.6L534.22,318.56Z" style="fill:rgb(245,197,204);fill-rule:nonzero;"/>
        <path d="M540.14,314.06L545.37,564.76L549.05,560.56L545.46,317.6L540.14,314.06Z" style="fill:rgb(204,146,155);fill-rule:nonzero;"/>
        <path d="M559.56,323.76L564.24,571.36L574.51,572.51L570.8,322.77L559.56,323.76Z" style="fill:rgb(245,197,204);fill-rule:nonzero;"/>
        <path d="M565.48,319.14L570.83,576.83L574.51,572.51L570.8,322.77L565.48,319.14Z" style="fill:rgb(204,146,155);fill-rule:nonzero;"/>
        <path d="M581.61,326.39L586.28,573.99L596.56,575.14L592.84,325.4L581.61,326.39Z" style="fill:rgb(245,197,204);fill-rule:nonzero;"/>
        <path d="M587.53,321.76L592.88,579.46L596.56,575.14L592.84,325.4L587.53,321.76Z" style="fill:rgb(204,146,155);fill-rule:nonzero;"/>
        <path d="M604.97,332.99L609.65,580.59L619.92,581.75L616.21,332.01L604.97,332.99Z" style="fill:rgb(245,197,204);fill-rule:nonzero;"/>
        <path d="M610.9,328.37L616.24,586.07L619.92,581.75L616.21,332.01L610.9,328.37Z" style="fill:rgb(204,146,155);fill-rule:nonzero;"/>
        <path d="M405.55,294.83L405.05,280.09L410.25,277.25L783.19,353.74L783.88,372.45L405.55,294.83Z" style="fill:rgb(245,197,204);fill-rule:nonzero;"/>
        <path d="M410.25,277.25L784.56,353.68L784.18,360.69L405.82,279.66" style="fill:rgb(204,146,155);fill-rule:nonzero;"/>
        <path d="M425.69,661.67L415.19,665.49L405.19,665.49L404.69,270.95L410.19,263.31L415.5,261.75L422.19,260.74L425.69,661.67Z" style="fill:rgb(245,197,204);fill-rule:nonzero;"/>
        <path d="M425.69,661.67L415.19,665.49L414.54,271.73L415.5,261.75L422.19,260.74L425.69,661.67Z" style="fill:rgb(204,146,155);fill-rule:nonzero;"/>
        <path d="M630.35,340.32L635.03,587.91L645.3,589.07L641.59,339.33L630.35,340.32Z" style="fill:rgb(245,197,204);fill-rule:nonzero;"/>
        <path d="M636.27,335.69L641.62,593.39L645.3,589.07L641.59,339.33L636.27,335.69Z" style="fill:rgb(204,146,155);fill-rule:nonzero;"/>
        <path d="M655.92,344.23L660.69,597.12L670.96,598.3L667.15,343.23L655.92,344.23Z" style="fill:rgb(245,197,204);fill-rule:nonzero;"/>
        <path d="M661.84,339.51L667.28,602.71L670.96,598.3L667.15,343.23L661.84,339.51Z" style="fill:none;fill-rule:nonzero;"/>
        <path d="M682.25,348.86L687.08,605.58L697.35,606.79L693.49,347.84L682.25,348.86Z" style="fill:rgb(245,197,204);fill-rule:nonzero;"/>
        <path d="M688.17,344.07L693.68,611.27L697.35,606.79L693.49,347.84L688.17,344.07Z" style="fill:rgb(204,146,155);fill-rule:nonzero;"/>
        <path d="M280.19,585.99L269.69,586.99L269.2,310.8L269.19,306.99L276.19,301.49L276.3,309.15L280.19,585.99Z" style="fill:rgb(245,197,204);fill-rule:nonzero;"/>
        <path d="M317.19,570.49L306.69,571.49L306.2,299.81L306.19,291.49L313.19,285.99L313.35,297.15L317.19,570.49Z" style="fill:rgb(245,197,204);fill-rule:nonzero;"/>
        <path d="M378.19,545.49L367.69,546.49L367.21,278.24L367.19,266.49L374.19,260.99L374.41,276.57L378.19,545.49Z" style="fill:rgb(245,197,204);fill-rule:nonzero;"/>
        <path d="M404.69,535.49L394.19,536.49L393.72,274.79L393.69,256.49L400.69,250.99L401.05,276.41L404.69,535.49Z" style="fill:rgb(245,197,204);fill-rule:nonzero;"/>
        <path d="M298.69,582.99L288.19,583.99L287.69,305.99L287.69,303.99L294.69,298.49L294.76,303.76L298.69,582.99Z" style="fill:rgb(245,197,204);fill-rule:nonzero;"/>
        <path d="M352.69,557.99L342.19,558.99L341.7,286.23L341.69,278.99L348.69,273.49L348.83,283.75L352.69,557.99Z" style="fill:rgb(245,197,204);fill-rule:nonzero;"/>
        <path d="M335.19,562.99L324.69,563.99L324.21,292.88L324.19,283.99L331.19,278.49L331.35,290.07L335.19,562.99Z" style="fill:rgb(245,197,204);fill-rule:nonzero;"/>
        <g id="Perinky">
            <g transform="matrix(1,0,0,1,-62.73,-29.63)">
                <path d="M331.72,569.48L329.22,574.73C329.22,574.73 322.72,584.48 323.47,599.48C324.22,614.48 313,654.23 313,654.23C313,654.23 323.25,658.98 331,658.48C338.75,657.98 355.5,666.23 355.5,666.23L390.22,677L460.47,693.5C460.47,693.5 501.72,716.5 512.97,716.5C524.22,716.5 568.97,731.75 568.97,731.75C568.97,731.75 629.47,745 634.22,750C638.97,755 659,761.73 661,762C663,762.27 693.5,765.25 693.5,765.25C693.5,765.25 729,773.5 734,764.75C736.914,759.83 738.866,754.4 739.75,748.75C740.634,743.1 755.5,752.25 759.75,747C764,741.75 764.25,730.5 769.25,731C774.25,731.5 794.75,737.75 797,735.5C799.25,733.25 811.25,706.75 819.75,710.75C828.25,714.75 843,721 843,721L834.5,634.5L830.75,610.75C830.75,610.75 694.5,666.25 689.75,666.25C685,666.25 331.72,569.48 331.72,569.48Z" style="fill:rgb(97,79,187);fill-rule:nonzero;"/>
            </g>
            <g transform="matrix(1,0,0,1,-62.73,-29.63)">
                <path d="M830,493.73L829.25,615.73L687.72,670L329.22,574.75C329.22,574.75 304.97,540.5 327.47,508.5C327.47,508.5 298.47,468.5 334.47,442.5L335.36,442.29L471.47,409.5L532,420.56L799.45,469.48C799.45,469.48 825.72,479.23 830,493.73Z" style="fill:rgb(97,79,187);fill-rule:nonzero;"/>
            </g>
            <g transform="matrix(1,0,0,1,-62.73,-29.63)">
                <path d="M321.47,384C321.47,384 318.97,432.5 348.72,447C378.47,461.5 378,466.48 378,466.48L385.5,464.98C385.5,464.98 359.5,435.98 361.25,430.98C363,425.98 338,400.73 334.47,399.73C330.94,398.73 321.47,384 321.47,384Z" style="fill:rgb(97,79,187);fill-rule:nonzero;"/>
            </g>
            <g transform="matrix(1,0,0,1,-62.73,-29.63)">
                <path d="M318,377.23C318,377.23 333.5,364.73 335.5,362.23C337.5,359.73 359.5,358.73 360.25,358.73C361,358.73 377.75,348.48 396.5,345.23C415.25,341.98 422.75,340.48 422.75,340.48C422.75,340.48 450.25,328.98 451.75,326.48C453.25,323.98 466,321.23 481.75,333.48C497.5,345.73 532.25,400.73 532.5,406.73C532.75,412.73 535,423.73 528.25,427.23C521.5,430.73 472.5,443.48 462.75,451.23C453,458.98 385.47,465 385.47,465L360,437.23L346.5,415.48L324,391.73L318,377.23Z" style="fill:rgb(97,79,187);fill-rule:nonzero;"/>
            </g>
            <g transform="matrix(1,0,0,1,-62.73,-29.63)">
                <path d="M332.09,579.45C332.09,579.45 321.42,591.45 318.09,602.12C314.76,612.79 322.09,652.79 322.09,652.79C325.848,646.135 328.547,638.935 330.09,631.45C332.75,618.79 332.09,579.45 332.09,579.45Z" style="fill:rgb(97,79,187);fill-rule:nonzero;"/>
            </g>
            <g transform="matrix(1,0,0,1,-62.73,-29.63)">
                <path d="M838.42,679.12C838.42,679.12 844.92,712.12 845.42,717.12C845.92,722.12 828.92,714.62 828.92,714.62L838.42,679.12Z" style="fill:rgb(97,79,187);fill-rule:nonzero;"/>
            </g>
        </g>
        <g transform="matrix(1,0,0,1,-62.73,-29.63)">
            <path d="M527.22,432.23C520.47,435.73 471.47,448.48 461.72,456.23C451.97,463.98 384.47,470 384.47,470L376.97,471.5C376.97,471.5 377.47,466.5 347.72,452C342.967,449.662 338.757,446.354 335.36,442.29L471.47,409.5L532,420.56C532.08,425.35 531.26,430.13 527.22,432.23Z" style="fill-opacity:0.1;fill-rule:nonzero;"/>
        </g>
        <g transform="matrix(1,0,0,1,-62.73,-29.63)">
            <path d="M322,384.73C322,384.73 319.5,433.23 349.25,447.73C379,462.23 378.5,467.23 378.5,467.23L386,465.73C386,465.73 360,436.73 361.75,431.73C363.5,426.73 338.47,401.48 335,400.48C331.53,399.48 322,384.73 322,384.73Z" style="fill-opacity:0.1;fill-rule:nonzero;"/>
        </g>
        <g transform="matrix(1,0,0,1,-62.73,-29.63)">
            <path d="M329,405.23C329,405.23 353,441.48 357.25,442.73C361.5,443.98 334.72,405.73 329,405.23Z" style="fill-opacity:0.1;fill-rule:nonzero;"/>
        </g>
        <g transform="matrix(1,0,0,1,-62.73,-29.63)">
            <path d="M359.8,593.15C359.8,593.15 350.47,595.15 355.8,600.48C361.13,605.81 359.8,593.15 359.8,593.15Z" style="fill-opacity:0.1;fill-rule:nonzero;"/>
        </g>
        <g transform="matrix(1,0,0,1,-62.73,-29.63)">
            <path d="M392.47,603.82C392.47,603.82 382.47,615.82 384.47,619.15C386.47,622.48 392.47,603.82 392.47,603.82Z" style="fill-opacity:0.1;fill-rule:nonzero;"/>
        </g>
        <g transform="matrix(1,0,0,1,-62.73,-29.63)">
            <path d="M451.14,619.15C451.14,619.15 441.14,631.15 443.14,634.48C445.14,637.81 451.14,619.15 451.14,619.15Z" style="fill-opacity:0.1;fill-rule:nonzero;"/>
        </g>
        <g transform="matrix(1,0,0,1,-62.73,-29.63)">
            <path d="M522.47,639.15C522.47,639.15 512.47,651.15 514.47,654.48C516.47,657.81 522.47,639.15 522.47,639.15Z" style="fill-opacity:0.1;fill-rule:nonzero;"/>
        </g>
        <g transform="matrix(1,0,0,1,-62.73,-29.63)">
            <path d="M618.47,663.15C618.47,663.15 608.47,675.15 610.47,678.48C612.47,681.81 618.47,663.15 618.47,663.15Z" style="fill-opacity:0.1;fill-rule:nonzero;"/>
        </g>
        <g transform="matrix(1,0,0,1,-62.73,-29.63)">
            <path d="M421.14,607.15C421.14,607.15 411.14,619.15 413.14,622.48C415.14,625.81 421.14,607.15 421.14,607.15Z" style="fill-opacity:0.1;fill-rule:nonzero;"/>
        </g>
        <g transform="matrix(1,0,0,1,-62.73,-29.63)">
            <path d="M560.47,649.15C560.47,649.15 550.47,661.15 552.47,664.48C554.47,667.81 560.47,649.15 560.47,649.15Z" style="fill-opacity:0.1;fill-rule:nonzero;"/>
        </g>
        <g transform="matrix(1,0,0,1,-62.73,-29.63)">
            <path d="M589.8,658.48C589.8,658.48 579.8,670.48 581.8,673.82C583.8,677.16 589.8,658.48 589.8,658.48Z" style="fill-opacity:0.1;fill-rule:nonzero;"/>
        </g>
        <g transform="matrix(1,0,0,1,-62.73,-29.63)">
            <path d="M477.14,627.15C477.14,627.15 467.14,639.15 469.14,642.48C471.14,645.81 477.14,627.15 477.14,627.15Z" style="fill-opacity:0.1;fill-rule:nonzero;"/>
        </g>
        <g transform="matrix(1,0,0,1,-62.73,-29.63)">
            <path d="M729.14,699.82L739.72,748.73C739.72,748.73 739.8,714.48 729.14,699.82Z" style="fill-opacity:0.1;fill-rule:nonzero;"/>
        </g>
        <g transform="matrix(1,0,0,1,-62.73,-29.63)">
            <path d="M761.8,707.15L769.22,731C769.22,731 768.47,721.82 761.8,707.15Z" style="fill-opacity:0.1;fill-rule:nonzero;"/>
        </g>
        <g transform="matrix(1,0,0,1,-62.73,-29.63)">
            <path d="M797,735.48C797,735.48 781.17,677.82 777.83,673.82C774.49,669.82 787.47,731.82 797,735.48Z" style="fill-opacity:0.1;fill-rule:nonzero;"/>
        </g>
        <g transform="matrix(1,0,0,1,-62.73,-29.63)">
            <path d="M815.8,708.48C815.8,708.48 797.14,675.82 804.47,669.82C811.8,663.82 815.8,708.48 815.8,708.48Z" style="fill-opacity:0.1;fill-rule:nonzero;"/>
        </g>
        <g transform="matrix(1,0,0,1,-62.73,-29.63)">
            <path d="M327.47,508.48L689.8,589.82L829.14,549.15L688.47,585.82C688.47,585.82 338.47,505.15 327.47,508.48Z" style="fill-opacity:0.1;fill-rule:nonzero;"/>
        </g>
        <path d="M275.69,390.49L276.19,623.24L286.44,624.49L286.94,389.74L275.69,390.49Z" style="fill:rgb(245,197,204);fill-rule:nonzero;"/>
        <path d="M281.69,386.24L282.69,628.49L286.44,624.49L286.94,389.74L281.69,386.24Z" style="fill:rgb(204,146,155);fill-rule:nonzero;"/>
        <path d="M297.44,396.74L297.94,629.49L308.19,630.74L308.69,395.99L297.44,396.74Z" style="fill:rgb(245,197,204);fill-rule:nonzero;"/>
        <path d="M303.44,392.49L304.44,634.74L308.19,630.74L308.69,395.99L303.44,392.49Z" style="fill:rgb(204,146,155);fill-rule:nonzero;"/>
        <path d="M318.69,403.49L319.19,636.24L329.44,637.49L329.94,402.74L318.69,403.49Z" style="fill:rgb(245,197,204);fill-rule:nonzero;"/>
        <path d="M324.69,399.24L325.69,641.49L329.44,637.49L329.94,402.74L324.69,399.24Z" style="fill:rgb(204,146,155);fill-rule:nonzero;"/>
        <path d="M339.44,405.14L339.94,646.06L350.19,647.35L350.69,404.36L339.44,405.14Z" style="fill:rgb(245,197,204);fill-rule:nonzero;"/>
        <path d="M345.44,400.74L346.44,651.49L350.19,647.35L350.69,404.36L345.44,400.74Z" style="fill:rgb(204,146,155);fill-rule:nonzero;"/>
        <path d="M361.94,407.39L362.44,648.31L372.69,649.6L373.19,406.61L361.94,407.39Z" style="fill:rgb(245,197,204);fill-rule:nonzero;"/>
        <path d="M367.94,402.99L368.94,653.74L372.69,649.6L373.19,406.61L367.94,402.99Z" style="fill:rgb(204,146,155);fill-rule:nonzero;"/>
        <path d="M383.94,415.64L384.44,656.56L394.69,657.85L395.19,414.86L383.94,415.64Z" style="fill:rgb(245,197,204);fill-rule:nonzero;"/>
        <path d="M389.94,411.24L390.94,661.99L394.69,657.85L395.19,414.86L389.94,411.24Z" style="fill:rgb(204,146,155);fill-rule:nonzero;"/>
        <path d="M409.19,421.26L409.69,668.9L419.94,670.23L420.44,420.46L409.19,421.26Z" style="fill:none;fill-rule:nonzero;"/>
        <path d="M415.19,416.74L416.19,674.49L419.94,670.23L420.44,420.46L415.19,416.74Z" style="fill:rgb(204,146,155);fill-rule:nonzero;"/>
        <path d="M431.19,424.26L431.69,671.9L441.94,673.23L442.44,423.46L431.19,424.26Z" style="fill:rgb(245,197,204);fill-rule:nonzero;"/>
        <path d="M437.19,419.74L438.19,677.49L441.94,673.23L442.44,423.46L437.19,419.74Z" style="fill:rgb(204,146,155);fill-rule:nonzero;"/>
        <path d="M454.44,431.26L454.94,678.9L465.19,680.23L465.69,430.46L454.44,431.26Z" style="fill:rgb(245,197,204);fill-rule:nonzero;"/>
        <path d="M460.44,426.74L461.44,684.49L465.19,680.23L465.69,430.46L460.44,426.74Z" style="fill:rgb(204,146,155);fill-rule:nonzero;"/>
        <path d="M479.69,439.01L480.19,686.65L490.44,687.98L490.94,438.21L479.69,439.01Z" style="fill:rgb(245,197,204);fill-rule:nonzero;"/>
        <path d="M485.69,434.49L486.69,692.24L490.44,687.98L490.94,438.21L485.69,434.49Z" style="fill:rgb(204,146,155);fill-rule:nonzero;"/>
        <path d="M505.19,443.36L505.69,696.28L515.94,697.64L516.44,442.54L505.19,443.36Z" style="fill:rgb(245,197,204);fill-rule:nonzero;"/>
        <path d="M511.19,438.74L512.19,701.99L515.94,697.64L516.44,442.54L511.19,438.74Z" style="fill:rgb(204,146,155);fill-rule:nonzero;"/>
        <path d="M531.44,448.43L531.94,705.2L542.19,706.58L542.69,447.6L531.44,448.43Z" style="fill:rgb(204,146,155);fill-rule:nonzero;"/>
        <path d="M537.44,443.74L538.44,710.99L542.19,706.58L542.69,447.6L537.44,443.74Z" style="fill:none;fill-rule:nonzero;"/>
        <path d="M558.19,455.43L558.69,712.2L568.94,713.58L569.44,454.6L558.19,455.43Z" style="fill:rgb(245,197,204);fill-rule:nonzero;"/>
        <path d="M564.19,450.74L565.19,717.99L568.94,713.58L569.44,454.6L564.19,450.74Z" style="fill:rgb(204,146,155);fill-rule:nonzero;"/>
        <path d="M582.94,460.68L583.44,717.45L593.69,718.83L594.19,459.85L582.94,460.68Z" style="fill:rgb(204,146,155);fill-rule:nonzero;"/>
        <path d="M588.94,455.99L589.94,723.24L593.69,718.83L594.19,459.85L588.94,455.99Z" style="fill:none;fill-rule:nonzero;"/>
        <path d="M262.19,668.49L251.69,672.49L241.69,672.49L241.19,305.49L246.69,297.49L252,295.86L259.69,293.49L262.19,668.49Z" style="fill:rgb(245,197,204);fill-rule:nonzero;"/>
        <path d="M262.19,668.49L251.69,672.49L251.04,306.3L252,295.86L259.69,293.49L262.19,668.49Z" style="fill:rgb(204,146,155);fill-rule:nonzero;"/>
        <path d="M799.19,724.67L788.69,728.49L778.69,728.49L778.19,324.95L783.69,326.31L789,324.75L796.69,322.49L799.19,724.67Z" style="fill:rgb(245,197,204);fill-rule:nonzero;"/>
        <path d="M799.19,724.67L788.69,728.49L788.04,334.73L789,324.75L796.69,322.49L799.19,724.67Z" style="fill:rgb(204,146,155);fill-rule:nonzero;"/>
        <path d="M653.69,648.99L643.19,649.99L642.71,380.4L642.69,369.99L649.69,364.49L649.89,378.86L653.69,648.99Z" style="fill:rgb(245,197,204);fill-rule:nonzero;"/>
        <path d="M690.69,633.49L680.19,634.49L679.72,369.88L679.69,354.49L686.69,348.99L686.95,367.25L690.69,633.49Z" style="fill:rgb(245,197,204);fill-rule:nonzero;"/>
        <path d="M751.69,608.49L741.19,609.49L740.72,345.5L740.69,329.49L747.69,323.99L747.95,342.5L751.69,608.49Z" style="fill:rgb(245,197,204);fill-rule:nonzero;"/>
        <path d="M767.19,319.49L767.69,599.49L778.19,598.49L774.19,313.99L767.19,319.49Z" style="fill:rgb(245,197,204);fill-rule:nonzero;"/>
        <path d="M672.19,645.99L661.69,646.99L661.21,375.87L661.19,366.99L668.19,361.49L668.36,373.7L672.19,645.99Z" style="fill:rgb(245,197,204);fill-rule:nonzero;"/>
        <path d="M708.69,625.99L698.19,626.99L697.72,363.08L697.69,346.99L704.69,341.49L704.95,360.17L708.69,625.99Z" style="fill:rgb(245,197,204);fill-rule:nonzero;"/>
        <path d="M729.02,619.32L718.52,620.32L718.05,356.41L718.05,354.84L718.02,340.32L725.02,334.82L725.26,351.88L725.28,353.5L729.02,619.32Z" style="fill:rgb(245,197,204);fill-rule:nonzero;"/>
        <path d="M632.69,647.16L777.69,585.49L787.69,587.82L788.02,610.82L635.36,669.82L632.69,647.16Z" style="fill:rgb(245,197,204);fill-rule:nonzero;"/>
        <path d="M777.69,585.49L632.69,647.16L787.15,587.69" style="fill:rgb(204,146,155);fill-rule:nonzero;"/>
        <path d="M257.02,614.49L622.69,725.49L622.02,743.49L255.69,630.49L257.02,614.49Z" style="fill:rgb(245,197,204);fill-rule:nonzero;"/>
        <g transform="matrix(1,0,0,1,-62.73,-29.63)">
            <path d="M701.42,818.12L690.92,822.12L680.92,822.12L680.42,411.12L680.42,409.12L681.2,407.98L685.92,401.12L691.23,399.49L698.92,397.12L699,411.12L701.42,818.12Z" style="fill:rgb(245,197,204);fill-rule:nonzero;"/>
        </g>
        <path d="M638.69,788.49L628.19,792.49L627.54,380.3L628.5,369.86L636.19,367.49L638.69,788.49Z" style="fill:rgb(204,146,155);fill-rule:nonzero;"/>
        <g transform="matrix(1,0,0,1,-62.73,-29.63)">
            <path d="M698.92,397.12L699,411.12C696.106,411.543 693.192,411.817 690.27,411.94C683.07,412.22 680.42,411.13 680.42,411.13C680.42,410.99 680.7,409.87 681.2,408L685.92,401.14L691.23,399.51L698.92,397.12Z" style="fill-opacity:0.1;fill-rule:nonzero;"/>
        </g>
        <g transform="matrix(1,0,0,1,-62.73,-29.63)">
            <path d="M712.42,394.12L712.62,408.49C710.04,409.09 707.647,409.603 705.44,410.03L705.44,399.62L712.42,394.12Z" style="fill-opacity:0.1;fill-rule:nonzero;"/>
        </g>
        <g transform="matrix(1,0,0,1,-62.73,-29.63)">
            <path d="M730.92,391.12L731.09,403.33C728.6,404.12 726.21,404.84 723.94,405.5L723.94,396.62L730.92,391.12Z" style="fill-opacity:0.1;fill-rule:nonzero;"/>
        </g>
        <g transform="matrix(1,0,0,1,-62.73,-29.63)">
            <path d="M749.42,378.62L749.68,396.88C747.18,397.807 744.77,398.683 742.45,399.51L742.45,384.12L749.42,378.62Z" style="fill-opacity:0.1;fill-rule:nonzero;"/>
        </g>
        <g transform="matrix(1,0,0,1,-62.73,-29.63)">
            <path d="M767.42,371.12L767.68,389.8L761.92,392.12L760.45,392.71L760.45,376.62L767.42,371.12Z" style="fill-opacity:0.1;fill-rule:nonzero;"/>
        </g>
        <g transform="matrix(1,0,0,1,-62.73,-29.63)">
            <path d="M810.68,372.13L803.45,375.13L803.45,359.13L810.45,353.63L810.68,372.13Z" style="fill-opacity:0.1;fill-rule:nonzero;"/>
        </g>
        <g transform="matrix(1,0,0,1,-62.73,-29.63)">
            <path d="M788,381.51L780.79,384.51L780.79,369.99L787.79,364.49L788,381.51Z" style="fill-opacity:0.1;fill-rule:nonzero;"/>
        </g>
        <g transform="matrix(1,0,0,1,-62.73,-29.63)">
            <path d="M865.42,361.12C865.42,361.12 846.92,361.12 841.92,359.62C836.92,358.12 826.42,364.12 761.92,390.12C722.92,405.85 701.27,409.5 690.27,409.93C683.07,410.21 680.42,409.12 680.42,409.12C680.42,409.12 693.59,348.7 735.53,337.41C740.206,336.136 744.804,334.59 749.3,332.78L750.11,332.47C753.632,331.106 757.244,329.986 760.92,329.12C774.38,326.03 783.99,320.12 808.32,319.94C823.413,319.687 838.151,324.576 850.1,333.8C858.44,340.36 865.63,349.43 865.42,361.12Z" style="fill:rgb(204,146,155);fill-rule:nonzero;"/>
        </g>
        <g transform="matrix(1,0,0,1,-62.73,-29.63)">
            <path d="M751.92,332.12C700.02,354.5 692.1,396.33 690.27,409.93C683.07,410.21 680.42,409.12 680.42,409.12C680.42,409.12 693.59,348.7 735.53,337.41C740.206,336.136 744.804,334.59 749.3,332.78L750.11,332.47C750.71,332.38 751.31,332.26 751.92,332.12Z" style="fill:rgb(245,197,204);fill-rule:nonzero;"/>
        </g>
        <g transform="matrix(1,0,0,1,-62.73,-29.63)">
            <path d="M338.92,331.12L339.03,338.78C336.5,339.41 334.14,339.96 331.93,340.43L331.93,336.62L338.92,331.12Z" style="fill-opacity:0.1;fill-rule:nonzero;"/>
        </g>
        <g transform="matrix(1,0,0,1,-62.73,-29.63)">
            <path d="M357.42,328.12L357.49,333.39C355.03,334.203 352.673,334.947 350.42,335.62L350.42,333.62L357.42,328.12Z" style="fill-opacity:0.1;fill-rule:nonzero;"/>
        </g>
        <g transform="matrix(1,0,0,1,-62.73,-29.63)">
            <path d="M375.92,315.62L376.08,326.78C373.62,327.72 371.237,328.607 368.93,329.44L368.93,321.12L375.92,315.62Z" style="fill-opacity:0.1;fill-rule:nonzero;"/>
        </g>
        <g transform="matrix(1,0,0,1,-62.73,-29.63)">
            <path d="M393.92,308.12L394.08,319.7C391.78,320.587 389.4,321.523 386.94,322.51L386.94,313.62L393.92,308.12Z" style="fill-opacity:0.1;fill-rule:nonzero;"/>
        </g>
        <g transform="matrix(1,0,0,1,-62.73,-29.63)">
            <path d="M411.42,303.12L411.56,313.38C409.293,314.14 406.917,314.967 404.43,315.86L404.43,308.62L411.42,303.12Z" style="fill-opacity:0.1;fill-rule:nonzero;"/>
        </g>
        <g transform="matrix(1,0,0,1,-62.73,-29.63)">
            <path d="M436.92,290.62L437.14,306.2C434.93,306.66 432.54,307.2 429.94,307.87L429.94,296.12L436.92,290.62Z" style="fill-opacity:0.1;fill-rule:nonzero;"/>
        </g>
        <g transform="matrix(1,0,0,1,-62.73,-29.63)">
            <path d="M463.78,306C461.426,305.113 458.958,304.568 456.45,304.38L456.45,286.08L463.45,280.58L463.78,306Z" style="fill-opacity:0.1;fill-rule:nonzero;"/>
        </g>
        <g transform="matrix(1,0,0,1,-62.73,-29.63)">
            <path d="M488.92,306.12C488.92,306.12 470.42,306.12 465.42,304.62C460.42,303.12 449.92,295.12 385.42,321.12C346.42,336.85 324.77,340.5 313.77,340.93C306.57,341.21 303.92,340.12 303.92,340.12C303.92,340.12 313.85,287.62 357.64,278.76C360.084,278.284 362.498,277.666 364.87,276.91C367.56,276.03 371.8,274.77 377.5,273.46C392.2,270.08 416.57,266.37 448.96,267.94C460.183,268.36 470.837,273.031 478.75,281C485.44,287.62 489.121,296.71 488.92,306.12Z" style="fill:rgb(204,146,155);fill-rule:nonzero;"/>
        </g>
        <g transform="matrix(1,0,0,1,-62.73,-29.63)">
            <path d="M377.5,273.46C325.6,295.84 315.6,327.33 313.77,340.93C306.57,341.21 303.92,340.12 303.92,340.12C303.92,340.12 313.85,287.62 357.64,278.76C360.084,278.284 362.498,277.666 364.87,276.91C367.56,276 371.8,274.77 377.5,273.46Z" style="fill:rgb(245,197,204);fill-rule:nonzero;"/>
        </g>
        <path d="M255.69,389.74L255.44,374.99L260.69,372.24L619.69,452.74L618.69,471.49L255.69,389.74Z" style="fill:rgb(245,197,204);fill-rule:nonzero;"/>
        <path d="M260.69,372.24L619.69,452.74L619.19,459.74L256.22,374.58" style="fill:rgb(204,146,155);fill-rule:nonzero;"/>
        <g id="Kolieska">
            <circle cx="252.69" cy="671.99" r="12" style="fill:rgb(64,65,77);"/>
            <circle cx="788.69" cy="728.49" r="12" style="fill:rgb(64,65,77);"/>
            <circle cx="629.69" cy="796.49" r="12" style="fill:rgb(64,65,77);"/>
        </g>
    </g>
    <g id="Pozadie" transform="matrix(1,0,0,1,-62.73,-29.63)">
        <path d="M402,59.3C431.18,33.27 477,28 518.77,30C649.86,36.52 768.19,99.8 870.55,171.39C907.61,197.3 944.09,225.23 968.14,260.92C1017.14,333.57 1002.58,434.21 934.5,494.06C911.33,514.42 883.25,530.06 854.42,543.87C803.16,568.47 747.85,588.22 689.67,593.87C648.19,597.87 606.19,594.62 564.94,589.03C449.71,573.4 336.6,538.84 241.79,479.72C200.21,453.79 161,421.55 143.88,379.6C126.76,337.65 137.71,284.49 180.17,259.66C197.73,249.39 218.73,244.75 239.28,240.39C269.54,233.98 300.28,227.66 327.58,214.63C355.79,201.17 389.18,175.14 383.58,145.34C377.6,113.37 372.8,85.3 402,59.3Z" style="fill:rgb(148,142,249);fill-opacity:0.1;fill-rule:nonzero;"/>
    </g>
    <ellipse id="Tieň-ženy" serif:id="Tieň ženy" cx="460.93" cy="788.9" rx="133.14" ry="41.68" style="fill:rgb(125,117,247);fill-opacity:0.1;"/>
    <g id="Teta">
        <g transform="matrix(1,0,0,1,-62.73,-29.63)">
            <path d="M570.67,792.37C567.92,792.37 564.92,797.12 564.92,797.12C540.17,807.12 537.67,782.12 538.92,779.12C540.17,776.12 545.17,759.62 545.17,759.62C545.17,759.62 544.42,748.12 543.67,744.87C542.912,742.426 541.986,740.037 540.9,737.72C539.22,733.89 537.42,730.12 537.42,730.12C537.42,730.12 548.17,703.62 562.42,706.12C564.96,706.545 567.361,707.574 569.42,709.12C577.25,715.02 577.72,727.71 571.89,737.12C564.64,748.87 575.14,771.12 577.64,778.37C580.14,785.62 573.42,792.37 570.67,792.37Z" style="fill:rgb(253,194,204);fill-rule:nonzero;"/>
        </g>
        <g transform="matrix(1,0,0,1,-62.73,-29.63)">
            <path d="M532.92,834.62C525.67,850.37 505.67,834.37 502.67,833.87C499.67,833.37 491.17,828.37 490.17,823.37C489.17,818.37 476.8,808.14 476.17,807.63C476.84,807.84 476.27,807.81 475.65,806.63C457.15,799.88 465.15,786.63 465.15,786.63L473.77,756.25L476.15,747.88L503.15,746.13C503.15,746.13 501.3,752.04 499.24,758.25C497.07,764.76 494.67,771.61 493.9,772.38C492.4,773.88 494.65,783.63 495.9,785.63C497.15,787.63 504.9,798.88 504.9,798.88L520.15,808.63C520.15,808.63 540.17,818.87 532.92,834.62Z" style="fill:rgb(253,194,204);fill-rule:nonzero;"/>
        </g>
        <g transform="matrix(1,0,0,1,-62.73,-29.63)">
            <path d="M503.17,746.12C503.17,746.12 501.32,752.03 499.26,758.24C497.85,757.835 496.597,757.008 495.67,755.87L473.92,756.37L473.79,756.24L476.17,747.87L503.17,746.12Z" style="fill-opacity:0.1;fill-rule:nonzero;"/>
        </g>
        <g transform="matrix(1,0,0,1,-62.73,-29.63)">
            <path d="M591.17,474.37C591.17,474.37 591.17,474.51 591.04,474.78C588.96,481.15 563.36,559.78 561.92,564.12C560.42,568.62 553.17,584.12 553.17,584.12C553.17,584.12 549.42,597.62 549.42,599.87C549.42,602.12 544.17,611.37 544.67,613.62C545.17,615.87 541.17,621.87 541.17,625.87C541.17,629.87 540.92,633.37 541.17,636.12C541.36,638.23 542.29,650.01 538.66,658.12C537.868,660.007 536.694,661.71 535.21,663.12C534.806,663.486 534.375,663.82 533.92,664.12C524.92,670.12 524.17,731.62 524.17,731.62L523.75,732.28L520.1,738L508.92,755.4C508.92,755.4 499.92,759.15 495.67,753.9L473.92,754.4C473.92,754.4 468.67,749.15 467.42,748.65C466.17,748.15 467.92,738.65 467.92,738.65C467.92,738.65 467.17,734.9 467.67,732.9C468.17,730.9 470.92,714.9 470.92,714.9C470.92,714.9 474.17,712.15 473.92,709.4C473.67,706.65 476.67,688.15 476.67,688.15L479.75,675.44L481.27,669.17L484.42,656.17L505.67,468.42L532.67,460.17L584.67,462.67L590.37,472.97L591.17,474.37Z" style="fill:rgb(95,93,126);fill-rule:nonzero;"/>
        </g>
        <g transform="matrix(1,0,0,1,-62.73,-29.63)">
            <path d="M517.92,566.62C517.67,571.37 516.42,578.62 516.92,582.87C517.42,587.12 519.17,603.12 518.42,606.12C517.67,609.12 521.17,612.62 522.42,614.12C523.67,615.62 522.92,620.12 523.17,623.62C523.42,627.12 526.67,630.37 526.67,630.37C526.67,630.37 522.92,638.37 525.67,639.62C528.42,640.87 534.17,652.37 534.17,652.37C534.17,652.37 536.1,654.8 538.66,658.1C537.681,660.509 536.037,662.59 533.92,664.1C524.92,670.1 524.17,731.6 524.17,731.6L523.75,732.26L518.17,721.1C518.17,721.1 484.92,670.85 482.67,670.1C482.128,669.888 481.647,669.544 481.27,669.1L484.42,656.1L505.67,468.35L532.67,460.1L584.67,462.6L557.29,465.35C557.29,465.35 545.12,474.08 545.04,474.35L523.17,483.6L519.17,543.6C519.17,543.6 518.17,561.87 517.92,566.62Z" style="fill-opacity:0.1;fill-rule:nonzero;"/>
        </g>
        <g transform="matrix(1,0,0,1,-62.73,-29.63)">
            <path d="M590.37,472.92C589.68,475.7 517.67,467.37 517.67,467.37L518.17,486.62L514.17,546.62C514.17,546.62 513.17,564.87 512.92,569.62C512.67,574.37 511.42,581.62 511.92,585.87C512.42,590.12 514.17,606.12 513.42,609.12C512.67,612.12 516.17,615.62 517.42,617.12C518.67,618.62 517.92,623.12 518.17,626.62C518.42,630.12 521.67,633.37 521.67,633.37C521.67,633.37 517.92,641.37 520.67,642.62C523.42,643.87 529.17,655.37 529.17,655.37C529.17,655.37 531.92,658.84 535.17,663.1C534.766,663.466 534.335,663.8 533.88,664.1C524.88,670.1 524.13,731.6 524.13,731.6L523.71,732.26L520.1,738L513.17,724.15C513.17,724.15 487.52,685.38 479.75,675.44L481.27,669.17L484.42,656.17L505.67,468.42L532.67,460.17L584.67,462.67L590.37,472.92Z" style="fill-opacity:0.1;fill-rule:nonzero;"/>
        </g>
        <g transform="matrix(1,0,0,1,-62.73,-29.63)">
            <path d="M569.45,709.08C568.45,726.98 549.59,735.74 540.9,737.72C539.22,733.89 537.42,730.12 537.42,730.12C537.42,730.12 548.17,703.62 562.42,706.12C564.967,706.529 567.378,707.544 569.45,709.08Z" style="fill-opacity:0.1;fill-rule:nonzero;"/>
        </g>
        <g transform="matrix(1,0,0,1,-62.73,-29.63)">
            <path d="M514.92,566.62C514.67,571.37 513.42,578.62 513.92,582.87C514.42,587.12 516.17,603.12 515.42,606.12C514.67,609.12 518.17,612.62 519.42,614.12C520.67,615.62 519.92,620.12 520.17,623.62C520.42,627.12 523.67,630.37 523.67,630.37C523.67,630.37 519.92,638.37 522.67,639.62C525.42,640.87 531.17,652.37 531.17,652.37C531.17,652.37 547.42,672.87 548.17,675.37C548.92,677.87 555.42,679.37 555.42,679.37C555.42,679.37 566.67,680.62 568.42,704.62C570.17,728.62 540.67,737.87 536.17,737.12C531.67,736.37 522.42,735.62 522.42,735.62L515.17,721.12C515.17,721.12 481.92,670.87 479.67,670.12C477.42,669.37 475.42,664.62 474.92,661.37C474.42,658.12 472.17,656.87 469.67,655.37C467.17,653.87 467.67,645.62 465.67,643.62C463.67,641.62 463.92,635.37 462.67,633.62C461.42,631.87 463.67,627.37 463.67,627.37C463.67,627.37 458.42,621.37 458.42,620.62C458.42,619.87 458.67,613.87 458.67,613.87C458.67,613.87 456.17,611.12 456.92,608.37C457.67,605.62 454.92,599.12 454.92,599.12C454.92,599.12 452.67,596.37 452.92,594.37C453.17,592.37 451.67,583.62 451.67,583.62C451.67,583.62 449.92,579.37 450.17,576.37C450.42,573.37 448.17,561.37 448.17,561.37C448.17,561.37 445.92,557.87 445.92,555.62C445.92,553.37 446.17,544.87 446.17,544.87C446.17,544.87 442.17,537.62 443.92,534.12C445.67,530.62 443.42,520.12 441.92,518.12C440.42,516.12 439.17,498.62 437.67,497.12C436.17,495.62 437.67,489.62 437.67,489.62L435.42,468.37C435.42,468.37 433.92,460.87 435.17,458.62C436.42,456.37 434.67,450.87 434.17,448.37C433.67,445.87 435.42,438.12 434.92,435.37C434.71,434.21 435.38,431.03 436.23,427.72C437.41,423.16 438.92,418.37 438.92,418.37C438.92,418.37 567.42,406.37 585.92,418.87C589.92,421.55 592.39,425.62 593.92,430.38C599.39,447.82 591.21,474.38 591.21,474.38L520.21,483.63L516.21,543.63C516.21,543.63 515.17,561.87 514.92,566.62Z" style="fill:rgb(95,93,126);fill-rule:nonzero;"/>
        </g>
        <g transform="matrix(1,0,0,1,-62.73,-29.63)">
            <path d="M494.42,655.62C494.42,655.62 516.67,648.87 521.92,653.37C527.17,657.87 494.42,655.62 494.42,655.62Z" style="fill-opacity:0.1;fill-rule:nonzero;"/>
        </g>
        <g transform="matrix(1,0,0,1,-62.73,-29.63)">
            <path d="M502.42,684.12C502.42,684.12 509.17,676.87 519.17,679.12C525.035,680.487 531.191,679.871 536.67,677.37L502.42,684.12Z" style="fill-opacity:0.1;fill-rule:nonzero;"/>
        </g>
        <g transform="matrix(1,0,0,1,-62.73,-29.63)">
            <path d="M525.92,692.37C525.92,692.37 544.17,689.87 544.92,692.12C545.67,694.37 525.92,692.37 525.92,692.37Z" style="fill-opacity:0.1;fill-rule:nonzero;"/>
        </g>
        <g transform="matrix(1,0,0,1,-62.73,-29.63)">
            <path d="M520.67,707.12C520.67,707.12 540.92,701.12 541.92,703.62C542.92,706.12 519.67,706.87 519.67,706.87L520.67,707.12Z" style="fill-opacity:0.1;fill-rule:nonzero;"/>
        </g>
        <g transform="matrix(1,0,0,1,-62.73,-29.63)">
            <path d="M543.42,572.37C543.42,572.37 524.42,589.12 527.17,590.87C529.92,592.62 543.42,572.37 543.42,572.37Z" style="fill-opacity:0.1;fill-rule:nonzero;"/>
        </g>
        <g transform="matrix(1,0,0,1,-62.73,-29.63)">
            <path d="M527.92,613.87C527.92,613.87 541.17,613.87 538.67,616.87C536.17,619.87 527.92,613.87 527.92,613.87Z" style="fill-opacity:0.1;fill-rule:nonzero;"/>
        </g>
        <g transform="matrix(1,0,0,1,-62.73,-29.63)">
            <path d="M535.92,625.62C535.92,625.62 530.67,630.12 531.92,631.12C533.17,632.12 535.92,625.62 535.92,625.62Z" style="fill-opacity:0.1;fill-rule:nonzero;"/>
        </g>
        <g transform="matrix(1,0,0,1,-62.73,-29.63)">
            <path d="M478.17,732.87C478.17,732.87 494.67,738.37 494.92,741.87C495.17,745.37 478.17,732.87 478.17,732.87Z" style="fill-opacity:0.1;fill-rule:nonzero;"/>
        </g>
        <g transform="matrix(1,0,0,1.1319,-62.73,-51.086)">
            <path d="M558.17,210.12L552.92,241.37C552.92,241.37 507.42,265.37 506.67,265.37C505.92,265.37 473.42,259.87 472.17,259.87C470.92,259.87 449.67,195.62 464.67,191.62C468.73,190.54 474.62,187.94 481.05,184.71C498.39,176.04 519.67,162.87 519.67,162.87C519.67,162.87 551.42,159.37 543.67,181.37C540.67,190 542.21,196.28 545.24,200.73C550,207.63 558.17,210.12 558.17,210.12Z" style="fill:rgb(253,194,204);fill-rule:nonzero;"/>
        </g>
        <g transform="matrix(1,0,0,1,-62.73,-29.63)">
            <path d="M558.17,210.12L552.92,241.37C552.92,241.37 507.42,265.37 506.67,265.37C505.92,265.37 473.42,259.87 472.17,259.87C470.92,259.87 449.67,195.62 464.67,191.62C468.73,190.54 474.62,187.94 481.05,184.71C485.14,184.98 487.92,185.37 487.92,185.37C487.92,185.37 497.92,223.62 498.67,235.37C499.42,247.12 525.42,248.37 527.17,247.87C528.92,247.37 536.17,218.62 536.17,218.62C536.17,218.62 535.42,208.62 537.67,208.62C539.55,208.62 543.89,202.62 545.24,200.73C550,207.63 558.17,210.12 558.17,210.12Z" style="fill-opacity:0.1;fill-rule:nonzero;"/>
        </g>
        <g transform="matrix(1,0,0,1,-62.73,-29.63)">
            <path d="M593.88,430.38C590.4,432.08 582.08,435.96 579.88,435.38C577.13,434.63 570.38,434.63 570.38,434.63C570.38,434.63 566.38,439.13 562.13,438.13C557.88,437.13 541.13,437.88 541.13,437.88C541.13,437.88 511.13,439.13 505.38,437.13C499.63,435.13 479.13,433.38 479.13,433.38C479.13,433.38 451.13,430.13 446.38,428.13C443.656,426.941 440.491,427.325 438.13,429.13C435.769,430.935 437.26,428.56 436.19,427.73C437.37,423.17 438.88,418.38 438.88,418.38C438.88,418.38 567.38,406.38 585.88,418.88C589.88,421.55 592.39,425.62 593.88,430.38Z" style="fill-opacity:0.1;fill-rule:nonzero;"/>
        </g>
        <g transform="matrix(1.00877,0,0,1,-73.7022,-9.99494)">
            <path d="M487.92,187.37C487.92,187.37 462.67,183.87 452.67,190.62C449.117,192.967 445.098,194.519 440.89,195.17C435.25,196.044 430.163,199.075 426.71,203.62C426.07,204.48 425.45,205.06 424.92,205.12C422.67,205.37 410.17,244.12 410.17,244.12L440.42,286.37C440.42,286.37 439.67,309.87 443.92,314.37C448.17,318.87 437.92,370.37 437.92,370.37C437.92,370.37 430.937,388.12 433.187,390.87C435.437,393.62 436.707,413.366 437.446,415.476C438.753,419.207 440.007,443.15 439.782,445.389C439.573,447.468 436.257,453.981 437.757,454.851C439.257,455.72 447.725,454.665 450.687,454.851C455.75,455.168 479.17,459.37 479.17,459.37C479.17,459.37 499.67,461.12 505.42,463.12C511.17,465.12 541.17,463.87 541.17,463.87C541.17,463.87 557.92,463.12 562.17,464.12C566.42,465.12 570.42,460.62 570.42,460.62C570.42,460.62 574.17,460.62 576.92,461.37C579.67,462.12 598.636,466.235 598.636,466.235C600.127,466.235 598.649,458.207 598.636,443.346C598.633,440.365 614.766,430.748 622.125,415.476C624.781,409.965 627.23,401.243 627.802,393.027C628.482,383.267 627.095,374.092 626.441,370.37C623.093,351.284 614.516,335.785 602.17,324.847C599.357,322.354 585.17,314.37 585.17,314.37C591.88,295.442 595.671,277.754 579.92,249.87L604.17,231.87C604.17,231.87 602.92,222.12 601.17,216.87C599.42,211.62 596.92,202.37 596.92,202.37C596.92,202.37 591.17,191.12 589.92,190.62C588.67,190.12 575.42,181.37 572.42,182.62C569.42,183.87 545.67,202.12 545.67,202.12C545.67,202.12 539.92,210.62 537.67,210.62C535.42,210.62 536.17,220.62 536.17,220.62C536.17,220.62 528.92,249.37 527.17,249.87C525.42,250.37 499.42,249.12 498.67,237.37C497.92,225.62 487.92,187.37 487.92,187.37Z" style="fill:rgb(203,63,63);fill-rule:nonzero;"/>
        </g>
        <g transform="matrix(0.836963,0.396867,-0.39935,0.8422,187.55,-55.6275)">
            <path d="M429.33,344.2C429.33,344.2 442.42,332.62 446.42,332.87C450.42,333.12 499.17,312.37 502.42,335.62C505.67,358.87 440.17,360.12 440.17,360.12L430.17,363.87C430.17,363.87 421.83,345.7 429.33,344.2Z" style="fill:rgb(253,194,204);fill-rule:nonzero;"/>
        </g>
        <g transform="matrix(1,0,0,1,-63.73,-29.63)">
            <path d="M440.17,285.12L410.17,244.12L404.294,264.983L402.92,294.62L401.92,301.62C401.92,301.62 397.679,346.961 396.825,363.589C396.453,370.823 398.273,384.322 404.294,390.385C415.798,401.969 472.84,457.372 472.84,457.372C472.84,457.372 470.14,440.254 472.84,435.548C475.54,430.841 489.039,429.133 489.039,429.133L449.17,390.385L431.284,365.279L440.17,285.12Z" style="fill:rgb(203,63,63);fill-rule:nonzero;stroke:black;stroke-opacity:0.09;stroke-width:1px;"/>
        </g>
        <g transform="matrix(-0.997465,0,0,1,978.542,-44.7463)">
            <path d="M429.33,344.2C429.33,344.2 443.187,336.354 447.187,336.604C451.187,336.854 498.037,332.213 501.287,355.463C504.537,378.713 440.17,360.12 440.17,360.12L430.17,363.87C430.17,363.87 421.83,345.7 429.33,344.2Z" style="fill:rgb(253,194,204);fill-rule:nonzero;"/>
        </g>
        <g transform="matrix(1.0622,0,0,1,-439.048,-33.985)">
            <path d="M914.697,240.589C914.697,240.589 924.865,263.552 926.444,268.526C928.097,273.736 937.52,313.123 939.893,318.3C942.265,323.478 943.711,330.107 944.474,335.167C945.145,339.614 945.238,344.33 944.474,348.659C943.711,352.987 943.414,359.058 939.893,361.138C936.371,363.218 928.225,362.448 923.347,361.138C918.534,359.845 911.916,355.356 910.628,353.276C909.435,351.349 915.018,350.844 915.62,348.659C916.452,345.64 917.491,339.256 915.62,335.167C913.305,330.107 902.56,328.658 901.728,325.3C900.967,322.231 907.488,321.644 910.628,322.018C913.12,322.314 923.337,325.616 923.347,325.3C923.347,325.3 910.602,321.831 909.172,321.134C908.269,320.694 907.441,317.523 904.524,306.969C902.601,300.008 904.382,297.265 900.222,291.479C898.012,288.405 893.127,273.706 893.127,273.706L900.222,268.526C908.441,273.188 916.632,277.451 914.697,240.589Z" style="fill:rgb(203,63,63);stroke:black;stroke-opacity:0.14;stroke-width:0.97px;stroke-linecap:round;stroke-miterlimit:1.5;"/>
        </g>
        <path d="M346.588,214.747L344.792,219.937L367.956,282.486L378.68,254.969L347.876,212.307L346.588,214.747Z" style="fill:rgb(203,63,63);"/>
        <g transform="matrix(0.366943,1.87124,-0.984042,0.192967,622.343,-480.971)">
            <path d="M355.241,218.972L344.792,219.937L367.956,282.486L378.68,254.969L355.241,218.972Z" style="fill:rgb(203,63,63);"/>
        </g>
        <circle cx="484.19" cy="120.74" r="45.75" style="fill-opacity:0.1;"/>
        <circle cx="484.19" cy="118.74" r="45.75" style="fill:rgb(253,194,204);"/>
        <g transform="matrix(0.832191,0.554489,-0.554489,0.832191,236.238,-221.101)">
            <path d="M445.67,395.37C445.67,395.37 458.67,395.37 463.67,396.62C468.67,397.87 479.17,398.12 479.17,398.12C479.17,398.12 450.17,397.12 445.67,395.37Z" style="fill-opacity:0.1;fill-rule:nonzero;"/>
        </g>
        <g transform="matrix(1,0,0,1,-62.73,-29.63)">
            <path d="M446.17,403.37C446.17,403.37 462.92,404.62 463.17,407.12C463.42,409.62 446.17,403.37 446.17,403.37Z" style="fill-opacity:0.1;fill-rule:nonzero;"/>
        </g>
        <g transform="matrix(1.15612,0,0,1.13525,-140.604,-100.942)">
            <path d="M573.67,372.62C573.67,372.62 583.92,376.37 583.67,377.62C583.42,378.87 574.67,375.62 573.67,372.62Z" style="fill-opacity:0.1;fill-rule:nonzero;"/>
        </g>
        <g transform="matrix(-2.19156,-0.730779,-1.21402,3.64077,2249.17,-512.239)">
            <path d="M576.747,373.441C576.747,373.441 583.656,376.345 583.67,377.62C583.674,378.039 577.304,375.577 577.304,375.577C577.304,375.577 576.722,374.606 576.287,374.271C575.803,373.897 575.294,373.149 575.294,373.149C575.294,373.149 576.246,373.245 576.747,373.441Z" style="fill-opacity:0.1;fill-rule:nonzero;"/>
        </g>
        <g transform="matrix(-0.980891,-0.113924,-0.274043,2.35953,1169.78,-371.009)">
            <path d="M573.67,372.62C573.67,372.62 583.92,376.37 583.67,377.62C583.42,378.87 574.67,375.62 573.67,372.62Z" style="fill-opacity:0.1;fill-rule:nonzero;"/>
        </g>
        <g transform="matrix(-0.956905,0.24384,0.586556,2.30183,707.061,-567.675)">
            <path d="M573.67,372.62C573.67,372.62 583.92,376.37 583.67,377.62C583.42,378.87 574.67,375.62 573.67,372.62Z" style="fill-opacity:0.1;fill-rule:nonzero;"/>
        </g>
        <g transform="matrix(-0.549943,0.585113,1.2935,1.21575,360.247,-344.837)">
            <path d="M573.67,372.62C573.67,372.62 583.92,376.37 583.67,377.62C583.42,378.87 574.67,375.62 573.67,372.62Z" style="fill-opacity:0.1;fill-rule:nonzero;"/>
        </g>
        <g transform="matrix(1,0,0,1,-62.73,-29.63)">
            <path d="M540.06,62.83C532.94,62.7 525.59,62.62 519.06,65.36C505.93,70.79 499.74,85.3 491.8,97C485.215,106.696 476.809,115.02 467.05,121.51C462.45,124.51 457.11,127.81 456,133.21C454.82,138.92 458.9,144.21 461,149.62C465.45,161.13 461,173.88 458.37,185.94C457.14,191.732 456.347,197.609 456,203.52C455.714,206.257 455.893,209.023 456.53,211.7C458.53,218.76 466.09,223.86 466.15,231.2C466.15,236.2 462.63,240.92 463.66,245.78C464.99,251.99 472.53,254.23 478.78,255.3C480.276,255.711 481.862,255.662 483.33,255.16C484.33,254.68 485.15,253.76 486.17,253.25C489.64,251.53 493.49,255.16 497.37,255.09C502.24,255 504.98,249.25 505.1,244.38C505.22,239.51 503.92,234.38 505.67,229.88C508,223.88 514.67,221.03 520.3,217.88C526.53,214.39 532.46,209.35 534.3,202.46C535.45,198.2 534.93,193.69 534.47,189.31C533.77,182.59 533.22,175.84 532.84,169.1C531.84,151.9 546.13,137.57 563.3,138.91L563.62,138.91C568.62,139.32 574.52,139.8 578.05,136.16C579.45,134.71 580.34,132.71 582.05,131.71C585.39,129.81 589.98,132.52 593.34,130.65C595.97,129.18 596.53,125.65 596.12,122.65C595.71,119.65 594.66,116.65 595.22,113.71C596.02,109.54 599.81,106.56 601.22,102.55C602.84,97.98 601.09,92.87 598.57,88.73C590.5,75.42 574.07,65 558.67,63.6C552.48,63 546.27,62.93 540.06,62.83Z" style="fill:rgb(134,90,97);fill-rule:nonzero;"/>
        </g>
        <g transform="matrix(1,0,0,1,-62.73,-29.63)">
            <path d="M596.47,134.22C596.81,130.71 598.24,127.4 598.99,123.95C599.729,120.613 599.831,117.165 599.29,113.79C598.987,111.352 598.079,109.028 596.65,107.03C595.65,105.78 592.65,103.03 590.9,104.27C589.9,104.98 589.63,109.09 589.23,110.27C587.827,114.233 585.946,118.011 583.63,121.52C589.286,129.325 592.333,138.721 592.333,148.36C592.333,173.438 571.708,194.08 546.63,194.1C545.54,194.1 544.46,194.05 543.39,193.97C542.39,195.71 541.48,197.47 540.56,199.23C539.474,201.017 538.74,202.996 538.4,205.06C538.317,207.033 538.619,209.003 539.29,210.86C541.152,216.969 543.723,222.839 546.95,228.35C548.075,230.061 548.998,231.896 549.7,233.82C550.27,235.67 550.37,237.65 551.11,239.43C552.77,243.43 557.11,245.43 561.11,247.1C563.5,248.1 566,249.1 568.58,248.89C568.623,248.893 568.667,248.895 568.71,248.895C569.665,248.895 570.45,248.109 570.45,247.155C570.45,247.143 570.45,247.132 570.45,247.12C570.731,244.996 569.988,242.861 568.45,241.37C571.842,242.433 575.403,242.857 578.95,242.62C579.064,242.644 579.179,242.656 579.295,242.656C580.223,242.656 580.985,241.893 580.985,240.966C580.985,240.677 580.911,240.392 580.77,240.14C579.849,236.368 578.444,232.731 576.59,229.32C574.77,225.96 572.45,222.05 574.11,218.62C575.06,216.62 577.06,215.5 578.88,214.31C585.03,210.31 590.48,203.79 590,196.46C589.74,192.46 587.72,188.65 587.6,184.62C587.29,174.79 597.87,167.76 599.47,158.05C600.74,150.11 595.7,142.25 596.47,134.22Z" style="fill:rgb(134,90,97);fill-rule:nonzero;"/>
        </g>
        <g opacity="0.1">
            <g transform="matrix(1,0,0,1,-62.73,-29.63)">
                <path d="M465.61,227.2C465.55,219.86 458,214.76 455.99,207.7C455.681,206.587 455.489,205.444 455.42,204.29C455.197,206.774 455.39,209.279 455.99,211.7C457.83,218.15 464.27,222.97 465.42,229.36C465.548,228.647 465.612,227.924 465.61,227.2Z" style="fill-rule:nonzero;"/>
            </g>
            <g transform="matrix(1,0,0,1,-62.73,-29.63)">
                <path d="M496.83,251.09C492.95,251.16 489.1,247.53 485.63,249.25C484.63,249.76 483.83,250.68 482.79,251.16C481.322,251.662 479.736,251.711 478.24,251.3C472.01,250.23 464.49,248 463.14,241.84C462.885,243.141 462.885,244.479 463.14,245.78C464.47,251.99 472.01,254.23 478.26,255.3C479.756,255.711 481.342,255.662 482.81,255.16C483.81,254.68 484.63,253.76 485.65,253.25C489.12,251.53 492.97,255.16 496.85,255.09C501.72,255 504.46,249.25 504.58,244.38C504.58,243.38 504.58,242.38 504.51,241.38C504,246 501.36,251 496.83,251.09Z" style="fill-rule:nonzero;"/>
            </g>
            <g transform="matrix(1,0,0,1,-62.73,-29.63)">
                <path d="M533.78,198.45C531.92,205.34 525.99,210.38 519.78,213.87C514.15,217.03 507.48,219.87 505.15,225.87C504.292,228.461 503.999,231.206 504.29,233.92C504.377,232.535 504.666,231.171 505.15,229.87C507.48,223.87 514.15,221.02 519.78,217.87C526.01,214.38 531.94,209.34 533.78,202.45C534.415,199.834 534.627,197.133 534.41,194.45C534.332,195.801 534.121,197.141 533.78,198.45Z" style="fill-rule:nonzero;"/>
            </g>
            <g transform="matrix(1,0,0,1,-62.73,-29.63)">
                <path d="M588.53,127.3C586.12,127.12 583.61,126.56 581.53,127.72C579.78,128.72 578.89,130.72 577.53,132.17C574,135.81 568.15,135.33 563.1,134.92L562.78,134.92C545.61,133.58 531.34,147.92 532.32,165.11L532.32,165.51C533.268,150.603 545.795,138.848 560.733,138.848C561.409,138.848 562.085,138.872 562.76,138.92L563.08,138.92C568.08,139.33 573.98,139.81 577.51,136.17C578.91,134.72 579.8,132.72 581.51,131.72C583.51,130.56 586.06,131.12 588.51,131.3C590.433,136.08 591.532,141.152 591.76,146.3C591.76,145.65 591.81,145 591.81,144.3C591.81,138.476 590.697,132.706 588.53,127.3Z" style="fill-rule:nonzero;"/>
            </g>
            <g transform="matrix(1,0,0,1,-62.73,-29.63)">
                <path d="M462.33,158.44C462.63,154.092 462.006,149.73 460.5,145.64C458.92,141.55 456.21,137.54 455.5,133.37C454.41,139.02 458.44,144.25 460.5,149.64C461.569,152.459 462.186,155.429 462.33,158.44Z" style="fill-rule:nonzero;"/>
            </g>
            <g transform="matrix(1,0,0,1,-62.73,-29.63)">
                <path d="M599.05,116.12C598.959,117.409 598.772,118.689 598.49,119.95C597.74,123.4 596.31,126.71 595.97,130.22C595.85,131.47 595.85,132.73 595.97,133.98C596.35,130.56 597.72,127.32 598.46,123.98C599.039,121.403 599.238,118.755 599.05,116.12Z" style="fill-rule:nonzero;"/>
            </g>
            <g transform="matrix(1,0,0,1,-62.73,-29.63)">
                <path d="M598.93,154.07C597.33,163.78 586.75,170.81 587.06,180.64C587.076,181.172 587.123,181.703 587.2,182.23C588.46,173.62 597.47,166.97 598.93,158.07C599.178,156.458 599.212,154.821 599.03,153.2C599,153.49 599,153.78 598.93,154.07Z" style="fill-rule:nonzero;"/>
            </g>
            <g transform="matrix(1,0,0,1,-62.73,-29.63)">
                <path d="M600.75,98.53C599.806,100.673 598.596,102.688 597.15,104.53C597.565,105.335 597.9,106.179 598.15,107.05C599.205,105.647 600.069,104.11 600.72,102.48C601.347,100.614 601.505,98.622 601.18,96.68C601.092,97.308 600.949,97.927 600.75,98.53Z" style="fill-rule:nonzero;"/>
            </g>
            <g transform="matrix(1,0,0,1,-62.73,-29.63)">
                <path d="M589.34,195.39C588.45,201.51 583.66,206.84 578.34,210.33C576.52,211.52 574.52,212.68 573.57,214.64C572.912,216.114 572.816,217.78 573.3,219.32C573.371,219.086 573.461,218.859 573.57,218.64C574.52,216.64 576.52,215.52 578.34,214.33C584.49,210.33 589.94,203.81 589.46,196.48C589.44,196.11 589.39,195.75 589.34,195.39Z" style="fill-rule:nonzero;"/>
            </g>
            <g transform="matrix(1,0,0,1,-62.73,-29.63)">
                <path d="M569.34,244.47C568.97,244.753 568.516,244.908 568.05,244.91C565.47,245.13 562.97,244.12 560.58,243.12C556.58,241.46 552.22,239.44 550.58,235.45C549.84,233.67 549.74,231.69 549.17,229.84C548.468,227.916 547.545,226.081 546.42,224.37C543.193,218.859 540.622,212.989 538.76,206.88C538.47,205.957 538.229,205.019 538.04,204.07C537.97,204.4 537.91,204.74 537.87,205.07C537.787,207.043 538.089,209.013 538.76,210.87C540.622,216.979 543.193,222.849 546.42,228.36C547.545,230.071 548.468,231.906 549.17,233.83C549.74,235.68 549.84,237.66 550.58,239.44C552.24,243.44 556.58,245.44 560.58,247.11C562.97,248.11 565.47,249.11 568.05,248.9C568.093,248.903 568.137,248.905 568.18,248.905C569.135,248.905 569.92,248.119 569.92,247.165C569.92,247.153 569.92,247.142 569.92,247.13C570.052,246.12 569.949,245.094 569.62,244.13C569.548,244.26 569.453,244.375 569.34,244.47Z" style="fill-rule:nonzero;"/>
            </g>
            <g transform="matrix(1,0,0,1,-62.73,-29.63)">
                <path d="M579.72,238.33C579.31,238.525 578.864,238.631 578.41,238.64C574.863,238.877 571.302,238.453 567.91,237.39C569.149,238.589 569.883,240.218 569.96,241.94C572.726,242.592 575.574,242.828 578.41,242.64C578.524,242.664 578.639,242.676 578.755,242.676C579.683,242.676 580.445,241.913 580.445,240.986C580.445,240.697 580.371,240.412 580.23,240.16C580.08,239.54 579.9,238.93 579.72,238.33Z" style="fill-rule:nonzero;"/>
            </g>
        </g>
        <g transform="matrix(0.977423,0.211292,-0.211292,0.977423,5.38578,-77.7885)">
            <path d="M440.17,260.37C440.17,260.37 439.17,280.87 442.17,282.37C445.17,283.87 440.17,260.37 440.17,260.37Z" style="fill-opacity:0.1;fill-rule:nonzero;"/>
        </g>
        <g transform="matrix(1.13987,0,0,1.11842,-132.621,-67.1363)">
            <path d="M496.92,314.37C497.92,314.37 501.92,316.37 502.42,318.62C502.92,320.87 496.92,314.37 496.92,314.37Z" style="fill-opacity:0.1;fill-rule:nonzero;"/>
        </g>
        <g transform="matrix(1.11555,0,0,1.24409,-120.178,-107.733)">
            <path d="M494.42,317.62C495.42,317.62 499.42,319.62 499.92,321.87C500.42,324.12 494.42,317.62 494.42,317.62Z" style="fill-opacity:0.1;fill-rule:nonzero;"/>
        </g>
        <g transform="matrix(1,0,0,1,-62.73,-29.63)">
            <path d="M503.67,326.62C504.67,326.62 508.67,328.62 509.17,330.87C509.67,333.12 503.67,326.62 503.67,326.62Z" style="fill-opacity:0.1;fill-rule:nonzero;"/>
        </g>
        <g transform="matrix(0.972314,0.233677,-0.233677,0.972314,28.5854,-130.231)">
            <path d="M491.17,327C491.17,327 477.59,340.59 476.75,343.5C475.91,346.41 450.25,346.5 450.25,346.5L448.5,332.5C448.5,332.5 448.4,332.13 448.31,331.57C456.862,336.227 479.93,328.081 492.07,324.27C492.237,325.272 491.9,326.294 491.17,327Z" style="fill-opacity:0.1;fill-rule:nonzero;"/>
        </g>
    </g>
</svg>
